ISO-10303-21;
HEADER;
FILE_DESCRIPTION (( 'STEP AP203' ),
    '1' );
FILE_NAME ('eth-bracket.STEP',
    '2025-09-22T16:52:12',
    ( '' ),
    ( '' ),
    'SwSTEP 2.0',
    'SolidWorks 2019',
    '' );
FILE_SCHEMA (( 'CONFIG_CONTROL_DESIGN' ));
ENDSEC;

DATA;
#1 = LINE ( 'NONE', #742, #204 ) ;
#2 = EDGE_CURVE ( 'NONE', #597, #1039, #953, .T. ) ;
#3 = CARTESIAN_POINT ( 'NONE',  ( -2.899999999999998135, -14.19999999999999929, 65.00000000000000000 ) ) ;
#4 = SECURITY_CLASSIFICATION ( '', '', #917 ) ;
#5 = CIRCLE ( 'NONE', #519, 2.000000000000000000 ) ;
#6 = CARTESIAN_POINT ( 'NONE',  ( 1.950000000000001066, -16.70100000000000406, 3.499999999999999556 ) ) ;
#7 = ORIENTED_EDGE ( 'NONE', *, *, #527, .T. ) ;
#8 = EDGE_CURVE ( 'NONE', #857, #500, #384, .T. ) ;
#9 = FACE_OUTER_BOUND ( 'NONE', #161, .T. ) ;
#10 = ORIENTED_EDGE ( 'NONE', *, *, #167, .F. ) ;
#11 = ADVANCED_FACE ( 'NONE', ( #305, #439 ), #774, .T. ) ;
#12 = DATE_AND_TIME ( #423, #994 ) ;
#13 = ORIENTED_EDGE ( 'NONE', *, *, #452, .F. ) ;
#14 = CYLINDRICAL_SURFACE ( 'NONE', #447, 2.000000000000000000 ) ;
#15 = APPROVAL_PERSON_ORGANIZATION ( #840, #1028, #989 ) ;
#16 = VECTOR ( 'NONE', #233, 1000.000000000000000 ) ;
#17 = APPROVAL_STATUS ( 'not_yet_approved' ) ;
#18 = EDGE_LOOP ( 'NONE', ( #31, #302 ) ) ;
#19 = AXIS2_PLACEMENT_3D ( 'NONE', #871, #129, #639 ) ;
#20 = VECTOR ( 'NONE', #638, 1000.000000000000000 ) ;
#21 = VERTEX_POINT ( 'NONE', #1034 ) ;
#22 = EDGE_CURVE ( 'NONE', #441, #267, #195, .T. ) ;
#23 = LINE ( 'NONE', #348, #998 ) ;
#24 = CARTESIAN_POINT ( 'NONE',  ( 3.200000000000001954, -16.70100000000000406, 3.499999999999999556 ) ) ;
#25 = VERTEX_POINT ( 'NONE', #525 ) ;
#26 = CARTESIAN_POINT ( 'NONE',  ( -4.792053801040907825E-17, 2.000000000000001776, 53.00000000000000711 ) ) ;
#27 = ADVANCED_FACE ( 'NONE', ( #131 ), #1025, .F. ) ;
#28 = VERTEX_POINT ( 'NONE', #453 ) ;
#29 = DIRECTION ( 'NONE',  ( 0.000000000000000000, -0.9874406319167053914, 0.1579905011066728704 ) ) ;
#30 = FACE_OUTER_BOUND ( 'NONE', #865, .T. ) ;
#31 = ORIENTED_EDGE ( 'NONE', *, *, #250, .F. ) ;
#32 = CIRCLE ( 'NONE', #643, 1.250000000000000444 ) ;
#33 = CIRCLE ( 'NONE', #67, 1.449999999999999956 ) ;
#34 = CARTESIAN_POINT ( 'NONE',  ( 0.000000000000000000, 0.000000000000000000, 65.00000000000000000 ) ) ;
#35 = ORIENTED_EDGE ( 'NONE', *, *, #259, .T. ) ;
#36 = EDGE_CURVE ( 'NONE', #922, #28, #926, .T. ) ;
#37 = CARTESIAN_POINT ( 'NONE',  ( 1.764999999999995905, -16.70100000000000051, 56.19000000000000483 ) ) ;
#38 = PLANE ( 'NONE',  #507 ) ;
#39 = EDGE_LOOP ( 'NONE', ( #773, #186, #699, #705 ) ) ;
#40 = CARTESIAN_POINT ( 'NONE',  ( 13.03499999999999837, 0.000000000000000000, 56.19000000000000483 ) ) ;
#41 = FACE_BOUND ( 'NONE', #177, .T. ) ;
#42 = ADVANCED_FACE ( 'NONE', ( #41, #1008, #625 ), #366, .F. ) ;
#43 = EDGE_LOOP ( 'NONE', ( #48, #918, #852, #287 ) ) ;
#44 = DIRECTION ( 'NONE',  ( -0.000000000000000000, -1.000000000000000000, -0.000000000000000000 ) ) ;
#45 = LINE ( 'NONE', #631, #445 ) ;
#46 = ORIENTED_EDGE ( 'NONE', *, *, #846, .T. ) ;
#47 = CARTESIAN_POINT ( 'NONE',  ( -0.8999999999999980238, -14.20000000000000107, 2.000000000000001776 ) ) ;
#48 = ORIENTED_EDGE ( 'NONE', *, *, #542, .F. ) ;
#49 = CIRCLE ( 'NONE', #694, 2.700000000000000178 ) ;
#50 = DIRECTION ( 'NONE',  ( 0.000000000000000000, 0.000000000000000000, 1.000000000000000000 ) ) ;
#51 = VERTEX_POINT ( 'NONE', #122 ) ;
#52 = CARTESIAN_POINT ( 'NONE',  ( 0.000000000000000000, 0.000000000000000000, 65.00000000000000000 ) ) ;
#53 = ADVANCED_FACE ( 'NONE', ( #530 ), #697, .F. ) ;
#54 = PLANE ( 'NONE',  #155 ) ;
#55 = VERTEX_POINT ( 'NONE', #1015 ) ;
#56 = DIRECTION ( 'NONE',  ( 5.204170427930420297E-16, 1.000000000000000000, -0.000000000000000000 ) ) ;
#57 = CARTESIAN_POINT ( 'NONE',  ( -2.899999999999999467, -16.69999999999999929, 2.000000000000001776 ) ) ;
#58 = VERTEX_POINT ( 'NONE', #284 ) ;
#59 = LINE ( 'NONE', #24, #758 ) ;
#60 = PLANE ( 'NONE',  #537 ) ;
#61 = CYLINDRICAL_SURFACE ( 'NONE', #939, 1.250000000000000888 ) ;
#62 = VECTOR ( 'NONE', #751, 1000.000000000000000 ) ;
#63 = EDGE_LOOP ( 'NONE', ( #1056, #265, #449, #634 ) ) ;
#64 = VECTOR ( 'NONE', #56, 1000.000000000000000 ) ;
#65 = CLOSED_SHELL ( 'NONE', ( #927, #304, #910, #388, #727, #755, #853, #687, #198, #904, #42, #716, #373, #901, #520, #881, #315, #53, #291, #996, #867, #957, #27, #503, #417, #473, #491, #11, #582, #1042, #988 ) ) ;
#66 = DIRECTION ( 'NONE',  ( -0.000000000000000000, 1.000000000000000000, -0.000000000000000000 ) ) ;
#67 = AXIS2_PLACEMENT_3D ( 'NONE', #799, #656, #298 ) ;
#68 = CARTESIAN_POINT ( 'NONE',  ( -2.899999999999999467, -16.69999999999999929, 65.00000000000000000 ) ) ;
#69 = EDGE_CURVE ( 'NONE', #294, #680, #781, .T. ) ;
#70 = VECTOR ( 'NONE', #203, 1000.000000000000000 ) ;
#71 = LINE ( 'NONE', #1040, #292 ) ;
#72 = DIRECTION ( 'NONE',  ( -1.221636250687892480E-16, 1.000000000000000000, 0.000000000000000000 ) ) ;
#73 = ORIENTED_EDGE ( 'NONE', *, *, #991, .F. ) ;
#74 = DIRECTION ( 'NONE',  ( -1.927470528863118802E-16, 1.000000000000000000, 0.000000000000000000 ) ) ;
#75 = DIRECTION ( 'NONE',  ( -0.000000000000000000, 1.000000000000000000, -0.000000000000000000 ) ) ;
#76 = EDGE_CURVE ( 'NONE', #193, #267, #32, .T. ) ;
#77 = CARTESIAN_POINT ( 'NONE',  ( 13.03499999999999837, -16.70100000000000051, 57.64000000000000057 ) ) ;
#78 = DIRECTION ( 'NONE',  ( -1.000000000000000000, 0.000000000000000000, 0.000000000000000000 ) ) ;
#79 = DIRECTION ( 'NONE',  ( 0.000000000000000000, 0.000000000000000000, -1.000000000000000000 ) ) ;
#80 = MECHANICAL_CONTEXT ( 'NONE', #310, 'mechanical' ) ;
#81 = DIRECTION ( 'NONE',  ( 0.000000000000000000, 0.000000000000000000, 1.000000000000000000 ) ) ;
#82 = EDGE_CURVE ( 'NONE', #379, #872, #612, .T. ) ;
#83 = VERTEX_POINT ( 'NONE', #116 ) ;
#84 = AXIS2_PLACEMENT_3D ( 'NONE', #806, #819, #158 ) ;
#85 = AXIS2_PLACEMENT_3D ( 'NONE', #34, #353, #518 ) ;
#86 = AXIS2_PLACEMENT_3D ( 'NONE', #378, #884, #560 ) ;
#87 = DATE_AND_TIME ( #585, #99 ) ;
#88 = CARTESIAN_POINT ( 'NONE',  ( 1.950000000000001066, -15.69999999999999929, 3.499999999999999556 ) ) ;
#89 = EDGE_CURVE ( 'NONE', #267, #193, #308, .T. ) ;
#90 = ORIENTED_EDGE ( 'NONE', *, *, #766, .F. ) ;
#91 = DIRECTION ( 'NONE',  ( 0.000000000000000000, 0.000000000000000000, -1.000000000000000000 ) ) ;
#92 = ORIENTED_EDGE ( 'NONE', *, *, #140, .F. ) ;
#93 = DATE_AND_TIME ( #835, #288 ) ;
#94 = ORIENTED_EDGE ( 'NONE', *, *, #465, .T. ) ;
#95 = DIRECTION ( 'NONE',  ( -0.000000000000000000, -1.000000000000000000, -0.000000000000000000 ) ) ;
#96 = VERTEX_POINT ( 'NONE', #868 ) ;
#97 = AXIS2_PLACEMENT_3D ( 'NONE', #3, #323, #1057 ) ;
#98 = EDGE_CURVE ( 'NONE', #563, #255, #689, .T. ) ;
#99 = LOCAL_TIME ( 0, 52, 12.00000000000000000, #845 ) ;
#100 = DATE_AND_TIME ( #746, #535 ) ;
#101 = ORIENTED_EDGE ( 'NONE', *, *, #192, .F. ) ;
#102 = VECTOR ( 'NONE', #594, 1000.000000000000000 ) ;
#103 = AXIS2_PLACEMENT_3D ( 'NONE', #1060, #815, #81 ) ;
#104 = DIRECTION ( 'NONE',  ( 0.000000000000000000, 0.000000000000000000, -1.000000000000000000 ) ) ;
#105 = PERSON_AND_ORGANIZATION_ROLE ( 'design_supplier' ) ;
#106 = EDGE_CURVE ( 'NONE', #468, #961, #946, .T. ) ;
#107 = ORIENTED_EDGE ( 'NONE', *, *, #335, .F. ) ;
#108 = FACE_OUTER_BOUND ( 'NONE', #958, .T. ) ;
#109 = ORIENTED_EDGE ( 'NONE', *, *, #89, .T. ) ;
#110 = CARTESIAN_POINT ( 'NONE',  ( 3.200000000000005063, -16.70100000000000406, 32.00000000000000000 ) ) ;
#111 = DIRECTION ( 'NONE',  ( 8.673617379884027583E-16, 0.000000000000000000, -1.000000000000000000 ) ) ;
#112 = EDGE_LOOP ( 'NONE', ( #10, #94, #933, #602, #753, #549 ) ) ;
#113 = CARTESIAN_POINT ( 'NONE',  ( 16.10000000000000142, -16.69999999999999929, 63.00000000000000000 ) ) ;
#114 = EDGE_CURVE ( 'NONE', #470, #487, #618, .T. ) ;
#115 = ORIENTED_EDGE ( 'NONE', *, *, #950, .T. ) ;
#116 = CARTESIAN_POINT ( 'NONE',  ( -0.9000000000000002442, -16.69999999999999929, 0.000000000000000000 ) ) ;
#117 = VERTEX_POINT ( 'NONE', #789 ) ;
#118 = AXIS2_PLACEMENT_3D ( 'NONE', #238, #636, #50 ) ;
#119 = CARTESIAN_POINT ( 'NONE',  ( 16.10000000000000142, 0.000000000000000000, 63.00000000000000000 ) ) ;
#120 = AXIS2_PLACEMENT_3D ( 'NONE', #415, #317, #902 ) ;
#121 = EDGE_CURVE ( 'NONE', #83, #680, #45, .T. ) ;
#122 = CARTESIAN_POINT ( 'NONE',  ( -0.8999999999999998002, -14.19999999999999929, 65.00000000000000000 ) ) ;
#123 = LINE ( 'NONE', #351, #70 ) ;
#124 = ORIENTED_EDGE ( 'NONE', *, *, #1007, .T. ) ;
#125 = DIRECTION ( 'NONE',  ( 0.000000000000000000, -1.000000000000000000, 0.000000000000000000 ) ) ;
#126 = CARTESIAN_POINT ( 'NONE',  ( 18.10000000000000142, 2.000000000000002220, 65.00000000000000000 ) ) ;
#127 = DIRECTION ( 'NONE',  ( -1.927470528863118802E-16, 1.000000000000000000, 0.000000000000000000 ) ) ;
#128 = ORIENTED_EDGE ( 'NONE', *, *, #568, .F. ) ;
#129 = DIRECTION ( 'NONE',  ( -0.000000000000000000, 1.000000000000000000, -0.000000000000000000 ) ) ;
#130 = EDGE_LOOP ( 'NONE', ( #349, #1048 ) ) ;
#131 = FACE_OUTER_BOUND ( 'NONE', #152, .T. ) ;
#132 = EDGE_CURVE ( 'NONE', #25, #117, #548, .T. ) ;
#133 = ORIENTED_EDGE ( 'NONE', *, *, #405, .F. ) ;
#134 = CYLINDRICAL_SURFACE ( 'NONE', #521, 2.700000000000000178 ) ;
#135 = ORIENTED_EDGE ( 'NONE', *, *, #411, .F. ) ;
#136 = AXIS2_PLACEMENT_3D ( 'NONE', #818, #273, #104 ) ;
#137 = CARTESIAN_POINT ( 'NONE',  ( 15.10000000000000142, -14.19999999999999929, 0.000000000000000000 ) ) ;
#138 = EDGE_LOOP ( 'NONE', ( #354, #887, #678, #189 ) ) ;
#139 = DIRECTION ( 'NONE',  ( -0.000000000000000000, 1.000000000000000000, -0.000000000000000000 ) ) ;
#140 = EDGE_CURVE ( 'NONE', #255, #51, #588, .T. ) ;
#141 = DIRECTION ( 'NONE',  ( 0.000000000000000000, 0.000000000000000000, -1.000000000000000000 ) ) ;
#142 = ORIENTED_EDGE ( 'NONE', *, *, #497, .T. ) ;
#143 = DIRECTION ( 'NONE',  ( 0.000000000000000000, -1.000000000000000000, 0.000000000000000000 ) ) ;
#144 = FACE_OUTER_BOUND ( 'NONE', #345, .T. ) ;
#145 = CARTESIAN_POINT ( 'NONE',  ( 1.950000000000004619, -15.69999999999999929, 34.70000000000000284 ) ) ;
#146 = ORIENTED_EDGE ( 'NONE', *, *, #670, .T. ) ;
#147 = EDGE_CURVE ( 'NONE', #623, #841, #970, .T. ) ;
#148 = DIRECTION ( 'NONE',  ( -0.000000000000000000, 0.000000000000000000, -1.000000000000000000 ) ) ;
#149 = LINE ( 'NONE', #68, #812 ) ;
#150 = DIRECTION ( 'NONE',  ( 0.000000000000000000, 0.000000000000000000, 1.000000000000000000 ) ) ;
#151 = CIRCLE ( 'NONE', #430, 1.449999999999999956 ) ;
#152 = EDGE_LOOP ( 'NONE', ( #685, #836, #197, #46, #808 ) ) ;
#153 = CARTESIAN_POINT ( 'NONE',  ( 1.764999999999995683, -16.70100000000000051, 57.64000000000000057 ) ) ;
#154 = CC_DESIGN_DATE_AND_TIME_ASSIGNMENT ( #87, #765, ( #4 ) ) ;
#155 = AXIS2_PLACEMENT_3D ( 'NONE', #956, #740, #1043 ) ;
#156 = DIRECTION ( 'NONE',  ( -0.000000000000000000, 0.000000000000000000, 1.000000000000000000 ) ) ;
#157 = AXIS2_PLACEMENT_3D ( 'NONE', #526, #937, #708 ) ;
#158 = DIRECTION ( 'NONE',  ( 0.000000000000000000, 0.000000000000000000, -1.000000000000000000 ) ) ;
#159 = CARTESIAN_POINT ( 'NONE',  ( 18.10000000000000142, -3.999999999999998224, 50.00000000000000000 ) ) ;
#160 =( BOUNDED_CURVE ( )  B_SPLINE_CURVE ( 3, ( #276, #196, #448, #782 ),
 .UNSPECIFIED., .F., .T. ) 
 B_SPLINE_CURVE_WITH_KNOTS ( ( 4, 4 ),
 ( 1.570796326794896780, 3.141592653589793116 ),
 .UNSPECIFIED. ) 
 CURVE ( )  GEOMETRIC_REPRESENTATION_ITEM ( )  RATIONAL_B_SPLINE_CURVE ( ( 1.000000000000000000, 0.8047378541243650485, 0.8047378541243650485, 1.000000000000000000 ) ) 
 REPRESENTATION_ITEM ( '' )  );
#161 = EDGE_LOOP ( 'NONE', ( #173, #299, #109, #795 ) ) ;
#162 = DIRECTION ( 'NONE',  ( -0.000000000000000000, -1.000000000000000000, -0.000000000000000000 ) ) ;
#163 = FACE_OUTER_BOUND ( 'NONE', #973, .T. ) ;
#164 = PLANE ( 'NONE',  #675 ) ;
#165 = ORIENTED_EDGE ( 'NONE', *, *, #180, .F. ) ;
#166 = CALENDAR_DATE ( 2025, 23, 9 ) ;
#167 = EDGE_CURVE ( 'NONE', #824, #464, #975, .T. ) ;
#168 = LINE ( 'NONE', #502, #62 ) ;
#169 = AXIS2_PLACEMENT_3D ( 'NONE', #536, #280, #850 ) ;
#170 = VECTOR ( 'NONE', #188, 1000.000000000000000 ) ;
#171 = CIRCLE ( 'NONE', #120, 2.000000000000001776 ) ;
#172 = PERSON_AND_ORGANIZATION_ROLE ( 'creator' ) ;
#173 = ORIENTED_EDGE ( 'NONE', *, *, #703, .F. ) ;
#174 = CARTESIAN_POINT ( 'NONE',  ( 1.950000000000004174, -15.69999999999999929, 32.00000000000000000 ) ) ;
#175 = ORIENTED_EDGE ( 'NONE', *, *, #76, .F. ) ;
#176 = APPLICATION_PROTOCOL_DEFINITION ( 'international standard', 'config_control_design', 1994, #1046 ) ;
#177 = EDGE_LOOP ( 'NONE', ( #261, #693 ) ) ;
#178 = CARTESIAN_POINT ( 'NONE',  ( 0.6999999999999996225, -14.19999999999999929, 3.499999999999999556 ) ) ;
#179 = EDGE_LOOP ( 'NONE', ( #200, #584, #1000, #218 ) ) ;
#180 = EDGE_CURVE ( 'NONE', #242, #343, #403, .T. ) ;
#181 = PERSON_AND_ORGANIZATION ( #270, #759 ) ;
#182 = ORIENTED_EDGE ( 'NONE', *, *, #235, .T. ) ;
#183 = FACE_OUTER_BOUND ( 'NONE', #551, .T. ) ;
#184 = EDGE_CURVE ( 'NONE', #597, #500, #398, .T. ) ;
#185 = APPROVAL_PERSON_ORGANIZATION ( #592, #621, #341 ) ;
#186 = ORIENTED_EDGE ( 'NONE', *, *, #886, .T. ) ;
#187 = CIRCLE ( 'NONE', #607, 2.000000000000001776 ) ;
#188 = DIRECTION ( 'NONE',  ( -0.000000000000000000, -0.000000000000000000, -1.000000000000000000 ) ) ;
#189 = ORIENTED_EDGE ( 'NONE', *, *, #979, .F. ) ;
#190 = DIRECTION ( 'NONE',  ( -0.000000000000000000, -1.000000000000000000, -0.000000000000000000 ) ) ;
#191 = DIRECTION ( 'NONE',  ( -1.000000000000000000, 0.000000000000000000, 0.000000000000000000 ) ) ;
#192 = EDGE_CURVE ( 'NONE', #318, #487, #33, .T. ) ;
#193 = VERTEX_POINT ( 'NONE', #383 ) ;
#194 = LINE ( 'NONE', #843, #828 ) ;
#195 = LINE ( 'NONE', #110, #962 ) ;
#196 = CARTESIAN_POINT ( 'NONE',  ( 18.10000000000000142, -11.86745166004060614, 0.8284271247461910681 ) ) ;
#197 = ORIENTED_EDGE ( 'NONE', *, *, #681, .F. ) ;
#198 = ADVANCED_FACE ( 'NONE', ( #889, #510, #981 ), #54, .F. ) ;
#199 = CARTESIAN_POINT ( 'NONE',  ( -2.899999999999999467, -16.69999999999999929, 65.00000000000000000 ) ) ;
#200 = ORIENTED_EDGE ( 'NONE', *, *, #264, .F. ) ;
#201 = MANIFOLD_SOLID_BREP ( '切除-拉伸4', #65 ) ;
#202 = CARTESIAN_POINT ( 'NONE',  ( -2.901000000000000689, -11.99999999999999822, -1.714505518806294244E-15 ) ) ;
#203 = DIRECTION ( 'NONE',  ( 0.000000000000000000, 1.000000000000000000, -0.000000000000000000 ) ) ;
#204 = VECTOR ( 'NONE', #671, 1000.000000000000000 ) ;
#205 = ORIENTED_EDGE ( 'NONE', *, *, #668, .T. ) ;
#206 = CIRCLE ( 'NONE', #894, 1.250000000000001110 ) ;
#207 = AXIS2_PLACEMENT_3D ( 'NONE', #451, #802, #633 ) ;
#208 = FACE_OUTER_BOUND ( 'NONE', #474, .T. ) ;
#209 = AXIS2_PLACEMENT_3D ( 'NONE', #153, #66, #733 ) ;
#210 = CARTESIAN_POINT ( 'NONE',  ( 0.000000000000000000, 0.000000000000000000, 0.000000000000000000 ) ) ;
#211 = ADVANCED_BREP_SHAPE_REPRESENTATION ( 'eth-bracket', ( #201, #728 ), #942 ) ;
#212 = LINE ( 'NONE', #947, #696 ) ;
#213 = VERTEX_POINT ( 'NONE', #303 ) ;
#214 = DIRECTION ( 'NONE',  ( 0.000000000000000000, 0.000000000000000000, 1.000000000000000000 ) ) ;
#215 = ORIENTED_EDGE ( 'NONE', *, *, #772, .T. ) ;
#216 = EDGE_CURVE ( 'NONE', #872, #21, #314, .T. ) ;
#217 = CARTESIAN_POINT ( 'NONE',  ( 0.000000000000000000, 0.000000000000000000, 65.00000000000000000 ) ) ;
#218 = ORIENTED_EDGE ( 'NONE', *, *, #229, .T. ) ;
#219 = LINE ( 'NONE', #290, #339 ) ;
#220 = CARTESIAN_POINT ( 'NONE',  ( 18.10000000000000142, 2.000000000000002220, 65.00000000000000000 ) ) ;
#221 = EDGE_CURVE ( 'NONE', #117, #615, #49, .T. ) ;
#222 = ORIENTED_EDGE ( 'NONE', *, *, #221, .T. ) ;
#223 = DIRECTION ( 'NONE',  ( 0.000000000000000000, -0.000000000000000000, 1.000000000000000000 ) ) ;
#224 = LINE ( 'NONE', #321, #628 ) ;
#225 = VECTOR ( 'NONE', #963, 1000.000000000000000 ) ;
#226 = ORIENTED_EDGE ( 'NONE', *, *, #216, .F. ) ;
#227 = VECTOR ( 'NONE', #1062, 1000.000000000000000 ) ;
#228 = CARTESIAN_POINT ( 'NONE',  ( 0.6999999999999998446, -15.69999999999999929, 3.499999999999999556 ) ) ;
#229 = EDGE_CURVE ( 'NONE', #660, #509, #811, .T. ) ;
#230 = DIRECTION ( 'NONE',  ( 0.000000000000000000, -1.000000000000000000, 0.000000000000000000 ) ) ;
#231 = ORIENTED_EDGE ( 'NONE', *, *, #147, .F. ) ;
#232 = DIRECTION ( 'NONE',  ( -0.000000000000000000, -0.000000000000000000, -1.000000000000000000 ) ) ;
#233 = DIRECTION ( 'NONE',  ( -0.000000000000000000, 1.000000000000000000, -0.000000000000000000 ) ) ;
#234 = DIRECTION ( 'NONE',  ( -1.927470528863119049E-16, 1.000000000000000000, -0.000000000000000000 ) ) ;
#235 = EDGE_CURVE ( 'NONE', #623, #922, #909, .T. ) ;
#236 = ORIENTED_EDGE ( 'NONE', *, *, #796, .F. ) ;
#237 = CARTESIAN_POINT ( 'NONE',  ( -4.792053801040907825E-17, -16.70100000000000051, 53.00000000000000711 ) ) ;
#238 = CARTESIAN_POINT ( 'NONE',  ( 1.764999999999995683, 0.000000000000000000, 57.64000000000000057 ) ) ;
#239 = DIRECTION ( 'NONE',  ( 1.000000000000000000, 0.000000000000000000, 0.000000000000000000 ) ) ;
#240 = DIRECTION ( 'NONE',  ( 0.000000000000000000, 0.000000000000000000, 1.000000000000000000 ) ) ;
#241 = AXIS2_PLACEMENT_3D ( 'NONE', #888, #864, #111 ) ;
#242 = VERTEX_POINT ( 'NONE', #228 ) ;
#243 = FACE_OUTER_BOUND ( 'NONE', #691, .T. ) ;
#244 = AXIS2_PLACEMENT_3D ( 'NONE', #47, #954, #546 ) ;
#245 = CARTESIAN_POINT ( 'NONE',  ( 1.950000000000001066, -16.69999999999999929, 3.499999999999999556 ) ) ;
#246 = AXIS2_PLACEMENT_3D ( 'NONE', #769, #609, #191 ) ;
#247 = LINE ( 'NONE', #492, #20 ) ;
#248 = DIRECTION ( 'NONE',  ( 0.000000000000000000, 1.000000000000000000, 0.000000000000000000 ) ) ;
#249 = ORIENTED_EDGE ( 'NONE', *, *, #180, .T. ) ;
#250 = EDGE_CURVE ( 'NONE', #58, #419, #289, .T. ) ;
#251 = SHAPE_DEFINITION_REPRESENTATION ( #253, #211 ) ;
#252 = CARTESIAN_POINT ( 'NONE',  ( 15.09999999999999964, 0.000000000000000000, 65.00000000000000000 ) ) ;
#253 = PRODUCT_DEFINITION_SHAPE ( 'NONE', 'NONE',  #1014 ) ;
#254 = ORIENTED_EDGE ( 'NONE', *, *, #36, .T. ) ;
#255 = VERTEX_POINT ( 'NONE', #324 ) ;
#256 = AXIS2_PLACEMENT_3D ( 'NONE', #77, #880, #579 ) ;
#257 = VECTOR ( 'NONE', #1026, 1000.000000000000000 ) ;
#258 = ORIENTED_EDGE ( 'NONE', *, *, #411, .T. ) ;
#259 = EDGE_CURVE ( 'NONE', #640, #908, #794, .T. ) ;
#260 = FACE_BOUND ( 'NONE', #800, .T. ) ;
#261 = ORIENTED_EDGE ( 'NONE', *, *, #235, .F. ) ;
#262 = EDGE_LOOP ( 'NONE', ( #517, #637, #798, #513, #879, #849 ) ) ;
#263 = CARTESIAN_POINT ( 'NONE',  ( -0.8999999999999993561, -16.69999999999999929, 65.00000000000000000 ) ) ;
#264 = EDGE_CURVE ( 'NONE', #563, #509, #149, .T. ) ;
#265 = ORIENTED_EDGE ( 'NONE', *, *, #8, .F. ) ;
#266 = FACE_OUTER_BOUND ( 'NONE', #883, .T. ) ;
#267 = VERTEX_POINT ( 'NONE', #912 ) ;
#268 = EDGE_CURVE ( 'NONE', #908, #640, #429, .T. ) ;
#269 = DIRECTION ( 'NONE',  ( -0.000000000000000000, 1.000000000000000000, -0.000000000000000000 ) ) ;
#270 = PERSON ( '未指定', '未指定', '未指定', ('未指定'), ('未指定'), ('未指定') ) ;
#271 = CARTESIAN_POINT ( 'NONE',  ( 1.950000000000001510, -15.69999999999999929, 6.200000000000000178 ) ) ;
#272 = ORIENTED_EDGE ( 'NONE', *, *, #1022, .T. ) ;
#273 = DIRECTION ( 'NONE',  ( 0.000000000000000000, -1.000000000000000000, 0.000000000000000000 ) ) ;
#274 = DIRECTION ( 'NONE',  ( -1.000000000000000000, 0.000000000000000000, 0.000000000000000000 ) ) ;
#275 = EDGE_CURVE ( 'NONE', #605, #441, #374, .T. ) ;
#276 = CARTESIAN_POINT ( 'NONE',  ( 18.10000000000000142, -11.67999999999999794, 2.000000000000001332 ) ) ;
#277 = ORIENTED_EDGE ( 'NONE', *, *, #132, .F. ) ;
#278 = LINE ( 'NONE', #433, #574 ) ;
#279 = ORIENTED_EDGE ( 'NONE', *, *, #184, .F. ) ;
#280 = DIRECTION ( 'NONE',  ( 0.000000000000000000, -1.000000000000000000, 0.000000000000000000 ) ) ;
#281 = CARTESIAN_POINT ( 'NONE',  ( 1.764999999999995683, 2.000000000000001776, 59.09000000000000341 ) ) ;
#282 = EDGE_LOOP ( 'NONE', ( #968, #460, #929, #236 ) ) ;
#283 = FACE_OUTER_BOUND ( 'NONE', #297, .T. ) ;
#284 = CARTESIAN_POINT ( 'NONE',  ( 1.950000000000004174, -16.69999999999999929, 29.30000000000000071 ) ) ;
#285 = DIRECTION ( 'NONE',  ( -0.000000000000000000, -0.1579905011066728426, -0.9874406319167053914 ) ) ;
#286 = AXIS2_PLACEMENT_3D ( 'NONE', #827, #248, #653 ) ;
#287 = ORIENTED_EDGE ( 'NONE', *, *, #250, .T. ) ;
#288 = LOCAL_TIME ( 0, 52, 12.00000000000000000, #921 ) ;
#289 = CIRCLE ( 'NONE', #896, 2.700000000000001066 ) ;
#290 = CARTESIAN_POINT ( 'NONE',  ( 15.10000000000000142, -14.19999999999999929, 65.00000000000000000 ) ) ;
#291 = ADVANCED_FACE ( 'NONE', ( #878 ), #60, .F. ) ;
#292 = VECTOR ( 'NONE', #959, 1000.000000000000000 ) ;
#293 = DIRECTION ( 'NONE',  ( 1.000000000000000000, 0.000000000000000000, -0.000000000000000000 ) ) ;
#294 = VERTEX_POINT ( 'NONE', #650 ) ;
#295 = CARTESIAN_POINT ( 'NONE',  ( 16.10000000000000142, -16.69999999999999929, 2.000000000000001776 ) ) ;
#296 = EDGE_CURVE ( 'NONE', #615, #117, #555, .T. ) ;
#297 = EDGE_LOOP ( 'NONE', ( #993, #770, #135, #146, #875, #7, #709, #832 ) ) ;
#298 = DIRECTION ( 'NONE',  ( 0.000000000000000000, 0.000000000000000000, 1.000000000000000000 ) ) ;
#299 = ORIENTED_EDGE ( 'NONE', *, *, #22, .T. ) ;
#300 = DIRECTION ( 'NONE',  ( 0.000000000000000000, 0.000000000000000000, 1.000000000000000000 ) ) ;
#301 = CARTESIAN_POINT ( 'NONE',  ( 18.10000000000000142, -16.69999999999999929, 63.00000000000000000 ) ) ;
#302 = ORIENTED_EDGE ( 'NONE', *, *, #1022, .F. ) ;
#303 = CARTESIAN_POINT ( 'NONE',  ( 3.200000000000001510, -15.69999999999999929, 3.499999999999999556 ) ) ;
#304 = ADVANCED_FACE ( 'NONE', ( #183 ), #337, .F. ) ;
#305 = FACE_OUTER_BOUND ( 'NONE', #347, .T. ) ;
#306 = CARTESIAN_POINT ( 'NONE',  ( 1.764999999999995683, 2.000000000000001776, 57.64000000000000057 ) ) ;
#307 = CARTESIAN_POINT ( 'NONE',  ( -0.8999999999999993561, -16.69999999999999929, 2.000000000000001776 ) ) ;
#308 = CIRCLE ( 'NONE', #907, 1.250000000000000444 ) ;
#309 = VECTOR ( 'NONE', #570, 1000.000000000000000 ) ;
#310 = APPLICATION_CONTEXT ( 'configuration controlled 3d designs of mechanical parts and assemblies' ) ;
#311 = ORIENTED_EDGE ( 'NONE', *, *, #1059, .F. ) ;
#312 = CIRCLE ( 'NONE', #964, 2.000000000000001776 ) ;
#313 = CARTESIAN_POINT ( 'NONE',  ( 18.10000000000000142, -11.99999999999999822, -1.714505518806294244E-15 ) ) ;
#314 = LINE ( 'NONE', #137, #763 ) ;
#315 = ADVANCED_FACE ( 'NONE', ( #266 ), #934, .T. ) ;
#316 = CARTESIAN_POINT ( 'NONE',  ( 18.10000000000000142, -11.67999999999999794, 2.000000000000001332 ) ) ;
#317 = DIRECTION ( 'NONE',  ( -2.396026900520451756E-17, 1.000000000000000000, -0.000000000000000000 ) ) ;
#318 = VERTEX_POINT ( 'NONE', #1011 ) ;
#319 = CARTESIAN_POINT ( 'NONE',  ( 18.10000000000000142, -16.69999999999999929, 65.00000000000000000 ) ) ;
#320 = DIRECTION ( 'NONE',  ( 0.000000000000000000, 0.000000000000000000, -1.000000000000000000 ) ) ;
#321 = CARTESIAN_POINT ( 'NONE',  ( 15.09999999999999964, -3.999999999999995559, 50.00000000000000000 ) ) ;
#322 = ORIENTED_EDGE ( 'NONE', *, *, #221, .F. ) ;
#323 = DIRECTION ( 'NONE',  ( 1.000000000000000000, -5.204170427930420297E-16, 0.000000000000000000 ) ) ;
#324 = CARTESIAN_POINT ( 'NONE',  ( -2.899999999999998135, -14.19999999999999929, 63.00000000000000000 ) ) ;
#325 = CARTESIAN_POINT ( 'NONE',  ( 1.950000000000004174, -15.69999999999999929, 32.00000000000000000 ) ) ;
#326 = DIRECTION ( 'NONE',  ( -0.000000000000000000, -1.000000000000000000, -0.000000000000000000 ) ) ;
#327 = ORIENTED_EDGE ( 'NONE', *, *, #810, .T. ) ;
#328 = EDGE_CURVE ( 'NONE', #567, #749, #187, .T. ) ;
#329 = DIRECTION ( 'NONE',  ( 1.000000000000000000, 0.000000000000000000, -0.000000000000000000 ) ) ;
#330 = VECTOR ( 'NONE', #44, 1000.000000000000000 ) ;
#331 = CARTESIAN_POINT ( 'NONE',  ( 1.764999999999995683, 0.000000000000000000, 57.64000000000000057 ) ) ;
#332 = ORIENTED_EDGE ( 'NONE', *, *, #382, .T. ) ;
#333 = CC_DESIGN_PERSON_AND_ORGANIZATION_ASSIGNMENT ( #181, #684, ( #416 ) ) ;
#334 = DIRECTION ( 'NONE',  ( 0.000000000000000000, -1.000000000000000000, 0.000000000000000000 ) ) ;
#335 = EDGE_CURVE ( 'NONE', #767, #683, #611, .T. ) ;
#336 = EDGE_LOOP ( 'NONE', ( #455, #599 ) ) ;
#337 = CYLINDRICAL_SURFACE ( 'NONE', #1032, 2.700000000000000178 ) ;
#338 = AXIS2_PLACEMENT_3D ( 'NONE', #564, #725, #459 ) ;
#339 = VECTOR ( 'NONE', #550, 1000.000000000000000 ) ;
#340 = CIRCLE ( 'NONE', #764, 1.449999999999999956 ) ;
#341 = APPROVAL_ROLE ( '' ) ;
#342 = CC_DESIGN_PERSON_AND_ORGANIZATION_ASSIGNMENT ( #508, #1001, ( #1031 ) ) ;
#343 = VERTEX_POINT ( 'NONE', #178 ) ;
#344 = FACE_BOUND ( 'NONE', #575, .T. ) ;
#345 = EDGE_LOOP ( 'NONE', ( #648, #215, #948, #107 ) ) ;
#346 = APPROVAL_ROLE ( '' ) ;
#347 = EDGE_LOOP ( 'NONE', ( #595, #205 ) ) ;
#348 = CARTESIAN_POINT ( 'NONE',  ( 15.09999999999999964, 0.000000000000000000, 65.00000000000000000 ) ) ;
#349 = ORIENTED_EDGE ( 'NONE', *, *, #766, .T. ) ;
#350 = CARTESIAN_POINT ( 'NONE',  ( -2.899999999999998135, -14.19999999999999929, 63.00000000000000000 ) ) ;
#351 = CARTESIAN_POINT ( 'NONE',  ( 18.10000000000000142, -16.69999999999999929, 2.000000000000001776 ) ) ;
#352 = ORIENTED_EDGE ( 'NONE', *, *, #147, .T. ) ;
#353 = DIRECTION ( 'NONE',  ( 0.000000000000000000, 0.000000000000000000, 1.000000000000000000 ) ) ;
#354 = ORIENTED_EDGE ( 'NONE', *, *, #328, .F. ) ;
#355 = VECTOR ( 'NONE', #721, 1000.000000000000000 ) ;
#356 = DIRECTION ( 'NONE',  ( -0.000000000000000000, 1.000000000000000000, -0.000000000000000000 ) ) ;
#357 = DIRECTION ( 'NONE',  ( 0.000000000000000000, 0.000000000000000000, 1.000000000000000000 ) ) ;
#358 = EDGE_LOOP ( 'NONE', ( #182, #254, #532, #231 ) ) ;
#359 = VECTOR ( 'NONE', #626, 1000.000000000000000 ) ;
#360 = LINE ( 'NONE', #923, #170 ) ;
#361 = EDGE_LOOP ( 'NONE', ( #925, #1017, #816, #899, #992, #133, #395 ) ) ;
#362 = DIRECTION ( 'NONE',  ( -1.000000000000000000, 0.000000000000000000, 0.000000000000000000 ) ) ;
#363 = CARTESIAN_POINT ( 'NONE',  ( 18.10000000000000142, -16.69999999999999929, 65.00000000000000000 ) ) ;
#364 = ORIENTED_EDGE ( 'NONE', *, *, #652, .T. ) ;
#365 = CARTESIAN_POINT ( 'NONE',  ( -2.899999999999999467, -16.69999999999999929, 63.00000000000000000 ) ) ;
#366 = PLANE ( 'NONE',  #860 ) ;
#367 = DIRECTION ( 'NONE',  ( -0.000000000000000000, 1.000000000000000000, -0.000000000000000000 ) ) ;
#368 = EDGE_CURVE ( 'NONE', #464, #683, #194, .T. ) ;
#369 = ORIENTED_EDGE ( 'NONE', *, *, #2, .T. ) ;
#370 = CARTESIAN_POINT ( 'NONE',  ( 15.09999999999999609, -16.70100000000000051, 53.00000000000000711 ) ) ;
#371 = CARTESIAN_POINT ( 'NONE',  ( 1.950000000000003730, -14.19999999999999929, 32.00000000000000000 ) ) ;
#372 = ORIENTED_EDGE ( 'NONE', *, *, #941, .F. ) ;
#373 = ADVANCED_FACE ( 'NONE', ( #344, #260, #523 ), #682, .F. ) ;
#374 = CIRCLE ( 'NONE', #506, 1.250000000000001110 ) ;
#375 = DIRECTION ( 'NONE',  ( -0.000000000000000000, -1.000000000000000000, -0.000000000000000000 ) ) ;
#376 = CIRCLE ( 'NONE', #338, 1.449999999999999956 ) ;
#377 = EDGE_LOOP ( 'NONE', ( #1002, #1010 ) ) ;
#378 = CARTESIAN_POINT ( 'NONE',  ( 1.950000000000004174, -15.69999999999999929, 32.00000000000000000 ) ) ;
#379 = VERTEX_POINT ( 'NONE', #514 ) ;
#380 = CARTESIAN_POINT ( 'NONE',  ( 18.10000000000000142, 2.000000000000001776, 50.00000000000000000 ) ) ;
#381 = EDGE_LOOP ( 'NONE', ( #322, #672 ) ) ;
#382 = EDGE_CURVE ( 'NONE', #701, #407, #360, .T. ) ;
#383 = CARTESIAN_POINT ( 'NONE',  ( 0.7000000000000033973, -14.19999999999999929, 32.00000000000000000 ) ) ;
#384 = LINE ( 'NONE', #1044, #729 ) ;
#385 =( LENGTH_UNIT ( ) NAMED_UNIT ( * ) SI_UNIT ( .MILLI., .METRE. ) );
#386 = LINE ( 'NONE', #370, #748 ) ;
#387 = DIRECTION ( 'NONE',  ( -1.927470528863119049E-16, 1.000000000000000000, -0.000000000000000000 ) ) ;
#388 = ADVANCED_FACE ( 'NONE', ( #108 ), #700, .F. ) ;
#389 = CARTESIAN_POINT ( 'NONE',  ( 1.950000000000004174, -16.69999999999999929, 32.00000000000000000 ) ) ;
#390 = DIRECTION ( 'NONE',  ( 0.000000000000000000, 1.000000000000000000, 0.000000000000000000 ) ) ;
#391 = AXIS2_PLACEMENT_3D ( 'NONE', #399, #1064, #561 ) ;
#392 = CARTESIAN_POINT ( 'NONE',  ( 0.7000000000000036193, -15.69999999999999929, 32.00000000000000000 ) ) ;
#393 = VECTOR ( 'NONE', #855, 1000.000000000000000 ) ;
#394 = CIRCLE ( 'NONE', #466, 1.449999999999999956 ) ;
#395 = ORIENTED_EDGE ( 'NONE', *, *, #810, .F. ) ;
#396 = AXIS2_PLACEMENT_3D ( 'NONE', #980, #329, #148 ) ;
#397 = LINE ( 'NONE', #319, #227 ) ;
#398 = LINE ( 'NONE', #565, #924 ) ;
#399 = CARTESIAN_POINT ( 'NONE',  ( 1.950000000000004174, -16.69999999999999929, 32.00000000000000000 ) ) ;
#400 = DIRECTION ( 'NONE',  ( 0.000000000000000000, 0.000000000000000000, -1.000000000000000000 ) ) ;
#401 = ORIENTED_EDGE ( 'NONE', *, *, #69, .T. ) ;
#402 = CARTESIAN_POINT ( 'NONE',  ( 13.03499999999999837, 0.000000000000000000, 57.64000000000000057 ) ) ;
#403 = LINE ( 'NONE', #480, #309 ) ;
#404 = FACE_BOUND ( 'NONE', #377, .T. ) ;
#405 = EDGE_CURVE ( 'NONE', #432, #701, #278, .T. ) ;
#406 = DIRECTION ( 'NONE',  ( -0.000000000000000000, 1.000000000000000000, -0.000000000000000000 ) ) ;
#407 = VERTEX_POINT ( 'NONE', #930 ) ;
#408 = LINE ( 'NONE', #237, #488 ) ;
#409 = FACE_OUTER_BOUND ( 'NONE', #43, .T. ) ;
#410 = DIRECTION ( 'NONE',  ( 1.000000000000000000, 1.221636250687892480E-16, -0.000000000000000000 ) ) ;
#411 = EDGE_CURVE ( 'NONE', #96, #749, #616, .T. ) ;
#412 = CC_DESIGN_APPROVAL ( #1028, ( #4 ) ) ;
#413 = UNCERTAINTY_MEASURE_WITH_UNIT (LENGTH_MEASURE( 1.000000000000000082E-05 ), #385, 'distance_accuracy_value', 'NONE');
#414 = ORIENTED_EDGE ( 'NONE', *, *, #114, .F. ) ;
#415 = CARTESIAN_POINT ( 'NONE',  ( 16.10000000000000142, 2.000000000000002220, 63.00000000000000000 ) ) ;
#416 = PRODUCT ( 'eth-bracket', 'eth-bracket', '', ( #80 ) ) ;
#417 = ADVANCED_FACE ( 'NONE', ( #420 ), #14, .T. ) ;
#418 = APPROVAL_STATUS ( 'not_yet_approved' ) ;
#419 = VERTEX_POINT ( 'NONE', #677 ) ;
#420 = FACE_OUTER_BOUND ( 'NONE', #515, .T. ) ;
#421 = ORIENTED_EDGE ( 'NONE', *, *, #668, .F. ) ;
#422 = EDGE_CURVE ( 'NONE', #1039, #857, #686, .T. ) ;
#423 = CALENDAR_DATE ( 2025, 23, 9 ) ;
#424 = ORIENTED_EDGE ( 'NONE', *, *, #606, .F. ) ;
#425 = DIRECTION ( 'NONE',  ( 1.000000000000000000, 0.000000000000000000, 0.000000000000000000 ) ) ;
#426 = ORIENTED_EDGE ( 'NONE', *, *, #452, .T. ) ;
#427 = AXIS2_PLACEMENT_3D ( 'NONE', #869, #127, #454 ) ;
#428 = AXIS2_PLACEMENT_3D ( 'NONE', #325, #471, #664 ) ;
#429 = CIRCLE ( 'NONE', #666, 2.700000000000001066 ) ;
#430 = AXIS2_PLACEMENT_3D ( 'NONE', #331, #583, #150 ) ;
#431 = APPROVAL_DATE_TIME ( #100, #1028 ) ;
#432 = VERTEX_POINT ( 'NONE', #26 ) ;
#433 = CARTESIAN_POINT ( 'NONE',  ( -4.792053801040907825E-17, 2.000000000000001776, 53.00000000000000711 ) ) ;
#434 = LINE ( 'NONE', #531, #359 ) ;
#435 = ORIENTED_EDGE ( 'NONE', *, *, #192, .T. ) ;
#436 = EDGE_CURVE ( 'NONE', #51, #96, #915, .T. ) ;
#437 = DIRECTION ( 'NONE',  ( 5.204170427930420297E-16, 1.000000000000000000, -0.000000000000000000 ) ) ;
#438 = ORIENTED_EDGE ( 'NONE', *, *, #681, .T. ) ;
#439 = FACE_BOUND ( 'NONE', #130, .T. ) ;
#440 = CYLINDRICAL_SURFACE ( 'NONE', #246, 1.250000000000000444 ) ;
#441 = VERTEX_POINT ( 'NONE', #919 ) ;
#442 = CARTESIAN_POINT ( 'NONE',  ( -2.901000000000000689, -3.999999999999998224, 50.00000000000000000 ) ) ;
#443 = CC_DESIGN_PERSON_AND_ORGANIZATION_ASSIGNMENT ( #596, #105, ( #1031 ) ) ;
#444 = ORIENTED_EDGE ( 'NONE', *, *, #670, .F. ) ;
#445 = VECTOR ( 'NONE', #952, 1000.000000000000000 ) ;
#446 = CARTESIAN_POINT ( 'NONE',  ( 1.950000000000003730, -14.19999999999999929, 32.00000000000000000 ) ) ;
#447 = AXIS2_PLACEMENT_3D ( 'NONE', #1006, #437, #771 ) ;
#448 = CARTESIAN_POINT ( 'NONE',  ( 17.27157287525381335, -11.99999999999999645, 1.444518904147349289E-15 ) ) ;
#449 = ORIENTED_EDGE ( 'NONE', *, *, #422, .F. ) ;
#450 = AXIS2_PLACEMENT_3D ( 'NONE', #6, #234, #990 ) ;
#451 = CARTESIAN_POINT ( 'NONE',  ( -2.899999999999999467, -16.69999999999999929, 65.00000000000000000 ) ) ;
#452 = EDGE_CURVE ( 'NONE', #1039, #617, #23, .T. ) ;
#453 = CARTESIAN_POINT ( 'NONE',  ( 1.764999999999995905, 2.000000000000001776, 56.19000000000000483 ) ) ;
#454 = DIRECTION ( 'NONE',  ( -1.000000000000000000, 0.000000000000000000, 0.000000000000000000 ) ) ;
#455 = ORIENTED_EDGE ( 'NONE', *, *, #950, .F. ) ;
#456 = PLANE ( 'NONE',  #207 ) ;
#457 = DIRECTION ( 'NONE',  ( -1.000000000000000000, -2.396026900520452064E-17, 0.000000000000000000 ) ) ;
#458 = CC_DESIGN_PERSON_AND_ORGANIZATION_ASSIGNMENT ( #905, #1004, ( #4 ) ) ;
#459 = DIRECTION ( 'NONE',  ( 0.000000000000000000, 0.000000000000000000, 1.000000000000000000 ) ) ;
#460 = ORIENTED_EDGE ( 'NONE', *, *, #69, .F. ) ;
#461 = CARTESIAN_POINT ( 'NONE',  ( 3.200000000000001510, -14.19999999999999929, 3.499999999999999556 ) ) ;
#462 = ORIENTED_EDGE ( 'NONE', *, *, #635, .F. ) ;
#463 = CARTESIAN_POINT ( 'NONE',  ( 1.950000000000001066, -15.69999999999999929, 0.7999999999999994893 ) ) ;
#464 = VERTEX_POINT ( 'NONE', #380 ) ;
#465 = EDGE_CURVE ( 'NONE', #824, #567, #1036, .T. ) ;
#466 = AXIS2_PLACEMENT_3D ( 'NONE', #949, #967, #882 ) ;
#467 = DIRECTION ( 'NONE',  ( -0.000000000000000000, -1.000000000000000000, -0.000000000000000000 ) ) ;
#468 = VERTEX_POINT ( 'NONE', #1024 ) ;
#469 = CARTESIAN_POINT ( 'NONE',  ( 1.764999999999995683, -16.70100000000000051, 59.09000000000000341 ) ) ;
#470 = VERTEX_POINT ( 'NONE', #792 ) ;
#471 = DIRECTION ( 'NONE',  ( 0.000000000000000000, -1.000000000000000000, 0.000000000000000000 ) ) ;
#472 = CYLINDRICAL_SURFACE ( 'NONE', #244, 2.000000000000000000 ) ;
#473 = ADVANCED_FACE ( 'NONE', ( #1030 ), #558, .T. ) ;
#474 = EDGE_LOOP ( 'NONE', ( #545, #311, #1037, #920 ) ) ;
#475 = DIRECTION ( 'NONE',  ( -0.000000000000000000, 1.000000000000000000, -0.000000000000000000 ) ) ;
#476 = CARTESIAN_POINT ( 'NONE',  ( 15.09999999999999964, 0.000000000000000000, 65.00000000000000000 ) ) ;
#477 = DIRECTION ( 'NONE',  ( 1.000000000000000000, -0.000000000000000000, -0.000000000000000000 ) ) ;
#478 = ORIENTED_EDGE ( 'NONE', *, *, #114, .T. ) ;
#479 = DIRECTION ( 'NONE',  ( -0.000000000000000000, 1.000000000000000000, -0.000000000000000000 ) ) ;
#480 = CARTESIAN_POINT ( 'NONE',  ( 0.7000000000000000666, -16.70100000000000406, 3.499999999999999556 ) ) ;
#481 = VECTOR ( 'NONE', #232, 1000.000000000000000 ) ;
#482 = CYLINDRICAL_SURFACE ( 'NONE', #84, 2.700000000000001066 ) ;
#483 = CC_DESIGN_APPROVAL ( #642, ( #1014 ) ) ;
#484 = CARTESIAN_POINT ( 'NONE',  ( 1.764999999999995683, 0.000000000000000000, 59.09000000000000341 ) ) ;
#485 = VECTOR ( 'NONE', #269, 1000.000000000000000 ) ;
#486 = CIRCLE ( 'NONE', #19, 2.000000000000000000 ) ;
#487 = VERTEX_POINT ( 'NONE', #1041 ) ;
#488 = VECTOR ( 'NONE', #479, 1000.000000000000000 ) ;
#489 = CYLINDRICAL_SURFACE ( 'NONE', #209, 1.449999999999999956 ) ;
#490 = DIRECTION ( 'NONE',  ( 1.000000000000000000, 0.000000000000000000, 0.000000000000000000 ) ) ;
#491 = ADVANCED_FACE ( 'NONE', ( #208 ), #472, .T. ) ;
#492 = CARTESIAN_POINT ( 'NONE',  ( 1.950000000000001510, -15.69999999999999929, 6.200000000000000178 ) ) ;
#493 = CARTESIAN_POINT ( 'NONE',  ( 1.950000000000001066, -16.70100000000000406, 3.499999999999999556 ) ) ;
#494 = DESIGN_CONTEXT ( 'detailed design', #1046, 'design' ) ;
#495 = ORIENTED_EDGE ( 'NONE', *, *, #568, .T. ) ;
#496 = CARTESIAN_POINT ( 'NONE',  ( 1.950000000000000622, -14.19999999999999929, 3.499999999999999556 ) ) ;
#497 = EDGE_CURVE ( 'NONE', #487, #318, #394, .T. ) ;
#498 = APPLICATION_PROTOCOL_DEFINITION ( 'international standard', 'config_control_design', 1994, #310 ) ;
#499 = FACE_OUTER_BOUND ( 'NONE', #627, .T. ) ;
#500 = VERTEX_POINT ( 'NONE', #866 ) ;
#501 = APPROVAL_DATE_TIME ( #679, #621 ) ;
#502 = CARTESIAN_POINT ( 'NONE',  ( 0.000000000000000000, 2.000000000000001776, 65.00000000000000000 ) ) ;
#503 = ADVANCED_FACE ( 'NONE', ( #858 ), #788, .T. ) ;
#504 = VECTOR ( 'NONE', #711, 1000.000000000000000 ) ;
#505 = ORIENTED_EDGE ( 'NONE', *, *, #436, .F. ) ;
#506 = AXIS2_PLACEMENT_3D ( 'NONE', #1058, #475, #320 ) ;
#507 = AXIS2_PLACEMENT_3D ( 'NONE', #363, #704, #1021 ) ;
#508 = PERSON_AND_ORGANIZATION ( #270, #759 ) ;
#509 = VERTEX_POINT ( 'NONE', #57 ) ;
#510 = FACE_BOUND ( 'NONE', #1013, .T. ) ;
#511 = CC_DESIGN_DATE_AND_TIME_ASSIGNMENT ( #12, #756, ( #1014 ) ) ;
#512 = PERSON_AND_ORGANIZATION ( #270, #759 ) ;
#513 = ORIENTED_EDGE ( 'NONE', *, *, #834, .T. ) ;
#514 = CARTESIAN_POINT ( 'NONE',  ( 15.09999999999999964, -11.99999999999999822, -1.714505518806294244E-15 ) ) ;
#515 = EDGE_LOOP ( 'NONE', ( #92, #718, #444, #505 ) ) ;
#516 = APPROVAL_DATE_TIME ( #93, #642 ) ;
#517 = ORIENTED_EDGE ( 'NONE', *, *, #778, .F. ) ;
#518 = DIRECTION ( 'NONE',  ( 1.000000000000000000, 0.000000000000000000, -0.000000000000000000 ) ) ;
#519 = AXIS2_PLACEMENT_3D ( 'NONE', #307, #375, #541 ) ;
#520 = ADVANCED_FACE ( 'NONE', ( #1047, #719, #283 ), #456, .F. ) ;
#521 = AXIS2_PLACEMENT_3D ( 'NONE', #715, #467, #797 ) ;
#522 = ORIENTED_EDGE ( 'NONE', *, *, #132, .T. ) ;
#523 = FACE_OUTER_BOUND ( 'NONE', #262, .T. ) ;
#524 = ORIENTED_EDGE ( 'NONE', *, *, #106, .T. ) ;
#525 = CARTESIAN_POINT ( 'NONE',  ( 1.950000000000001066, -15.69999999999999929, 0.7999999999999994893 ) ) ;
#526 = CARTESIAN_POINT ( 'NONE',  ( 1.950000000000004174, -16.70100000000000406, 32.00000000000000000 ) ) ;
#527 = EDGE_CURVE ( 'NONE', #509, #83, #5, .T. ) ;
#528 = EDGE_LOOP ( 'NONE', ( #554, #743 ) ) ;
#529 = DIRECTION ( 'NONE',  ( -0.000000000000000000, -1.000000000000000000, -0.000000000000000000 ) ) ;
#530 = FACE_OUTER_BOUND ( 'NONE', #831, .T. ) ;
#531 = CARTESIAN_POINT ( 'NONE',  ( 0.000000000000000000, 2.000000000000001776, 65.00000000000000000 ) ) ;
#532 = ORIENTED_EDGE ( 'NONE', *, *, #614, .T. ) ;
#533 = DIRECTION ( 'NONE',  ( -0.000000000000000000, -1.000000000000000000, -0.000000000000000000 ) ) ;
#534 = EDGE_CURVE ( 'NONE', #857, #701, #386, .T. ) ;
#535 = LOCAL_TIME ( 0, 52, 12.00000000000000000, #752 ) ;
#536 = CARTESIAN_POINT ( 'NONE',  ( 1.950000000000001066, -15.69999999999999929, 3.499999999999999556 ) ) ;
#537 = AXIS2_PLACEMENT_3D ( 'NONE', #1052, #156, #490 ) ;
#538 = CYLINDRICAL_SURFACE ( 'NONE', #157, 1.250000000000000444 ) ;
#539 = ORIENTED_EDGE ( 'NONE', *, *, #436, .T. ) ;
#540 = CIRCLE ( 'NONE', #103, 2.000000000000000000 ) ;
#541 = DIRECTION ( 'NONE',  ( 0.000000000000000000, 0.000000000000000000, 1.000000000000000000 ) ) ;
#542 = EDGE_CURVE ( 'NONE', #640, #419, #622, .T. ) ;
#543 = CARTESIAN_POINT ( 'NONE',  ( 15.09999999999999964, 0.000000000000000000, 0.000000000000000000 ) ) ;
#544 = CARTESIAN_POINT ( 'NONE',  ( 15.09999999999999787, -3.999999999999996447, 50.00000000000000000 ) ) ;
#545 = ORIENTED_EDGE ( 'NONE', *, *, #578, .F. ) ;
#546 = DIRECTION ( 'NONE',  ( 1.000000000000000000, -8.673617379884035472E-16, 0.000000000000000000 ) ) ;
#547 = EDGE_LOOP ( 'NONE', ( #73, #791, #914, #165 ) ) ;
#548 = LINE ( 'NONE', #463, #1049 ) ;
#549 = ORIENTED_EDGE ( 'NONE', *, *, #368, .F. ) ;
#550 = DIRECTION ( 'NONE',  ( -1.000000000000000000, 0.000000000000000000, 0.000000000000000000 ) ) ;
#551 = EDGE_LOOP ( 'NONE', ( #421, #738, #978, #277 ) ) ;
#552 = DIRECTION ( 'NONE',  ( 0.000000000000000000, 0.000000000000000000, -1.000000000000000000 ) ) ;
#553 = EDGE_CURVE ( 'NONE', #617, #51, #219, .T. ) ;
#554 = ORIENTED_EDGE ( 'NONE', *, *, #1007, .F. ) ;
#555 = CIRCLE ( 'NONE', #136, 2.700000000000000178 ) ;
#556 = FACE_OUTER_BOUND ( 'NONE', #783, .T. ) ;
#557 = VECTOR ( 'NONE', #777, 1000.000000000000000 ) ;
#558 = CYLINDRICAL_SURFACE ( 'NONE', #861, 2.000000000000000000 ) ;
#559 = VERTEX_POINT ( 'NONE', #40 ) ;
#560 = DIRECTION ( 'NONE',  ( 0.000000000000000000, 0.000000000000000000, -1.000000000000000000 ) ) ;
#561 = DIRECTION ( 'NONE',  ( 0.000000000000000000, 0.000000000000000000, -1.000000000000000000 ) ) ;
#562 = DIRECTION ( 'NONE',  ( -0.000000000000000000, -1.000000000000000000, -0.000000000000000000 ) ) ;
#563 = VERTEX_POINT ( 'NONE', #365 ) ;
#564 = CARTESIAN_POINT ( 'NONE',  ( 13.03499999999999837, 0.000000000000000000, 57.64000000000000057 ) ) ;
#565 = CARTESIAN_POINT ( 'NONE',  ( 0.000000000000000000, 0.000000000000000000, 65.00000000000000000 ) ) ;
#566 = DIRECTION ( 'NONE',  ( -1.221636250687892480E-16, 1.000000000000000000, 0.000000000000000000 ) ) ;
#567 = VERTEX_POINT ( 'NONE', #706 ) ;
#568 = EDGE_CURVE ( 'NONE', #559, #318, #940, .T. ) ;
#569 = FACE_OUTER_BOUND ( 'NONE', #997, .T. ) ;
#570 = DIRECTION ( 'NONE',  ( -1.927470528863119049E-16, 1.000000000000000000, -0.000000000000000000 ) ) ;
#571 = CIRCLE ( 'NONE', #427, 1.250000000000000888 ) ;
#572 = LOCAL_TIME ( 0, 52, 12.00000000000000000, #673 ) ;
#573 = LINE ( 'NONE', #665, #985 ) ;
#574 = VECTOR ( 'NONE', #425, 1000.000000000000000 ) ;
#575 = EDGE_LOOP ( 'NONE', ( #1019, #372 ) ) ;
#576 = CIRCLE ( 'NONE', #241, 1.250000000000001110 ) ;
#577 = DIRECTION ( 'NONE',  ( -1.000000000000000000, 0.000000000000000000, 0.000000000000000000 ) ) ;
#578 = EDGE_CURVE ( 'NONE', #21, #660, #486, .T. ) ;
#579 = DIRECTION ( 'NONE',  ( 0.000000000000000000, 0.000000000000000000, 1.000000000000000000 ) ) ;
#580 = FACE_OUTER_BOUND ( 'NONE', #1061, .T. ) ;
#581 = VERTEX_POINT ( 'NONE', #461 ) ;
#582 = ADVANCED_FACE ( 'NONE', ( #960 ), #134, .F. ) ;
#583 = DIRECTION ( 'NONE',  ( -0.000000000000000000, -1.000000000000000000, -0.000000000000000000 ) ) ;
#584 = ORIENTED_EDGE ( 'NONE', *, *, #98, .T. ) ;
#585 = CALENDAR_DATE ( 2025, 23, 9 ) ;
#586 = CC_DESIGN_PERSON_AND_ORGANIZATION_ASSIGNMENT ( #601, #172, ( #1014 ) ) ;
#587 = EDGE_LOOP ( 'NONE', ( #870, #987, #364, #724 ) ) ;
#588 = CIRCLE ( 'NONE', #943, 2.000000000000001776 ) ;
#589 = DIRECTION ( 'NONE',  ( 0.000000000000000000, 0.000000000000000000, -1.000000000000000000 ) ) ;
#590 = AXIS2_PLACEMENT_3D ( 'NONE', #848, #837, #1018 ) ;
#591 = CIRCLE ( 'NONE', #1033, 1.250000000000001110 ) ;
#592 = PERSON_AND_ORGANIZATION ( #270, #759 ) ;
#593 = ORIENTED_EDGE ( 'NONE', *, *, #822, .T. ) ;
#594 = DIRECTION ( 'NONE',  ( -0.000000000000000000, -0.000000000000000000, -1.000000000000000000 ) ) ;
#595 = ORIENTED_EDGE ( 'NONE', *, *, #635, .T. ) ;
#596 = PERSON_AND_ORGANIZATION ( #270, #759 ) ;
#597 = VERTEX_POINT ( 'NONE', #52 ) ;
#598 = DIRECTION ( 'NONE',  ( -5.204170427930420297E-16, -1.000000000000000000, 0.000000000000000000 ) ) ;
#599 = ORIENTED_EDGE ( 'NONE', *, *, #822, .F. ) ;
#600 = EDGE_CURVE ( 'NONE', #767, #407, #224, .T. ) ;
#601 = PERSON_AND_ORGANIZATION ( #270, #759 ) ;
#602 = ORIENTED_EDGE ( 'NONE', *, *, #796, .T. ) ;
#603 = DIRECTION ( 'NONE',  ( 0.000000000000000000, -1.000000000000000000, 0.000000000000000000 ) ) ;
#604 = CC_DESIGN_SECURITY_CLASSIFICATION ( #4, ( #1031 ) ) ;
#605 = VERTEX_POINT ( 'NONE', #392 ) ;
#606 = EDGE_CURVE ( 'NONE', #908, #58, #986, .T. ) ;
#607 = AXIS2_PLACEMENT_3D ( 'NONE', #113, #754, #692 ) ;
#608 = DIRECTION ( 'NONE',  ( 0.000000000000000000, 0.000000000000000000, 1.000000000000000000 ) ) ;
#609 = DIRECTION ( 'NONE',  ( -1.927470528863119049E-16, 1.000000000000000000, -0.000000000000000000 ) ) ;
#610 = ORIENTED_EDGE ( 'NONE', *, *, #422, .T. ) ;
#611 = LINE ( 'NONE', #442, #557 ) ;
#612 = LINE ( 'NONE', #543, #393 ) ;
#613 = LINE ( 'NONE', #313, #714 ) ;
#614 = EDGE_CURVE ( 'NONE', #28, #841, #893, .T. ) ;
#615 = VERTEX_POINT ( 'NONE', #807 ) ;
#616 = LINE ( 'NONE', #199, #779 ) ;
#617 = VERTEX_POINT ( 'NONE', #898 ) ;
#618 = LINE ( 'NONE', #936, #485 ) ;
#619 = CARTESIAN_POINT ( 'NONE',  ( 1.764999999999995683, -16.70100000000000051, 57.64000000000000057 ) ) ;
#620 = ORIENTED_EDGE ( 'NONE', *, *, #965, .F. ) ;
#621 = APPROVAL ( #826, '未指定' ) ;
#622 = LINE ( 'NONE', #647, #330 ) ;
#623 = VERTEX_POINT ( 'NONE', #484 ) ;
#624 = AXIS2_PLACEMENT_3D ( 'NONE', #88, #334, #400 ) ;
#625 = FACE_OUTER_BOUND ( 'NONE', #63, .T. ) ;
#626 = DIRECTION ( 'NONE',  ( -0.000000000000000000, -0.000000000000000000, -1.000000000000000000 ) ) ;
#627 = EDGE_LOOP ( 'NONE', ( #632, #90, #249, #1035 ) ) ;
#628 = VECTOR ( 'NONE', #72, 1000.000000000000000 ) ;
#629 = DIRECTION ( 'NONE',  ( -0.000000000000000000, 1.000000000000000000, -0.000000000000000000 ) ) ;
#630 = ORIENTED_EDGE ( 'NONE', *, *, #121, .F. ) ;
#631 = CARTESIAN_POINT ( 'NONE',  ( -2.899999999999999467, -16.69999999999999929, 0.000000000000000000 ) ) ;
#632 = ORIENTED_EDGE ( 'NONE', *, *, #829, .F. ) ;
#633 = DIRECTION ( 'NONE',  ( 0.000000000000000000, -0.000000000000000000, 1.000000000000000000 ) ) ;
#634 = ORIENTED_EDGE ( 'NONE', *, *, #2, .F. ) ;
#635 = EDGE_CURVE ( 'NONE', #25, #787, #814, .T. ) ;
#636 = DIRECTION ( 'NONE',  ( -0.000000000000000000, -1.000000000000000000, -0.000000000000000000 ) ) ;
#637 = ORIENTED_EDGE ( 'NONE', *, *, #140, .T. ) ;
#638 = DIRECTION ( 'NONE',  ( -0.000000000000000000, -1.000000000000000000, -0.000000000000000000 ) ) ;
#639 = DIRECTION ( 'NONE',  ( -8.673617379884035472E-16, 0.000000000000000000, -1.000000000000000000 ) ) ;
#640 = VERTEX_POINT ( 'NONE', #145 ) ;
#641 = CARTESIAN_POINT ( 'NONE',  ( -2.899999999999998135, -14.19999999999999929, 2.000000000000001776 ) ) ;
#642 = APPROVAL ( #17, '未指定' ) ;
#643 = AXIS2_PLACEMENT_3D ( 'NONE', #371, #931, #274 ) ;
#644 = CARTESIAN_POINT ( 'NONE',  ( 0.000000000000000000, 0.000000000000000000, 65.00000000000000000 ) ) ;
#645 = AXIS2_PLACEMENT_3D ( 'NONE', #854, #603, #1003 ) ;
#646 = CARTESIAN_POINT ( 'NONE',  ( 0.000000000000000000, 2.000000000000001776, 65.00000000000000000 ) ) ;
#647 = CARTESIAN_POINT ( 'NONE',  ( 1.950000000000004619, -15.69999999999999929, 34.70000000000000284 ) ) ;
#648 = ORIENTED_EDGE ( 'NONE', *, *, #600, .T. ) ;
#649 = LINE ( 'NONE', #1009, #862 ) ;
#650 = CARTESIAN_POINT ( 'NONE',  ( 16.10000000000000142, -11.99999999999999822, -1.714505518806294244E-15 ) ) ;
#651 = LINE ( 'NONE', #736, #64 ) ;
#652 = EDGE_CURVE ( 'NONE', #605, #193, #1, .T. ) ;
#653 = DIRECTION ( 'NONE',  ( 0.000000000000000000, 0.000000000000000000, 1.000000000000000000 ) ) ;
#654 = ORIENTED_EDGE ( 'NONE', *, *, #979, .T. ) ;
#655 = PLANE ( 'NONE',  #396 ) ;
#656 = DIRECTION ( 'NONE',  ( 0.000000000000000000, 1.000000000000000000, 0.000000000000000000 ) ) ;
#657 = CARTESIAN_POINT ( 'NONE',  ( 0.000000000000000000, 0.000000000000000000, 0.000000000000000000 ) ) ;
#658 = CARTESIAN_POINT ( 'NONE',  ( 1.950000000000001066, -15.69999999999999929, 3.499999999999999556 ) ) ;
#659 = EDGE_CURVE ( 'NONE', #680, #55, #540, .T. ) ;
#660 = VERTEX_POINT ( 'NONE', #977 ) ;
#661 = CARTESIAN_POINT ( 'NONE',  ( 1.764999999999995905, 0.000000000000000000, 56.19000000000000483 ) ) ;
#662 = DIRECTION ( 'NONE',  ( 0.000000000000000000, -1.000000000000000000, 0.000000000000000000 ) ) ;
#663 = CIRCLE ( 'NONE', #391, 2.700000000000001066 ) ;
#664 = DIRECTION ( 'NONE',  ( 0.000000000000000000, -0.000000000000000000, -1.000000000000000000 ) ) ;
#665 = CARTESIAN_POINT ( 'NONE',  ( -2.901000000000000689, -11.99999999999999822, -1.714505518806294244E-15 ) ) ;
#666 = AXIS2_PLACEMENT_3D ( 'NONE', #174, #143, #552 ) ;
#667 = ORIENTED_EDGE ( 'NONE', *, *, #834, .F. ) ;
#668 = EDGE_CURVE ( 'NONE', #787, #25, #830, .T. ) ;
#669 = CARTESIAN_POINT ( 'NONE',  ( -0.8999999999999993561, -16.69999999999999929, 63.00000000000000000 ) ) ;
#670 = EDGE_CURVE ( 'NONE', #96, #563, #312, .T. ) ;
#671 = DIRECTION ( 'NONE',  ( -1.927470528863119049E-16, 1.000000000000000000, -0.000000000000000000 ) ) ;
#672 = ORIENTED_EDGE ( 'NONE', *, *, #296, .F. ) ;
#673 = COORDINATED_UNIVERSAL_TIME_OFFSET ( 8, 0, .AHEAD. ) ;
#674 = ORIENTED_EDGE ( 'NONE', *, *, #82, .F. ) ;
#675 = AXIS2_PLACEMENT_3D ( 'NONE', #252, #410, #566 ) ;
#676 = VECTOR ( 'NONE', #457, 1000.000000000000000 ) ;
#677 = CARTESIAN_POINT ( 'NONE',  ( 1.950000000000004619, -16.69999999999999929, 34.70000000000000284 ) ) ;
#678 = ORIENTED_EDGE ( 'NONE', *, *, #695, .F. ) ;
#679 = DATE_AND_TIME ( #166, #572 ) ;
#680 = VERTEX_POINT ( 'NONE', #885 ) ;
#681 = EDGE_CURVE ( 'NONE', #379, #294, #573, .T. ) ;
#682 = PLANE ( 'NONE',  #645 ) ;
#683 = VERTEX_POINT ( 'NONE', #159 ) ;
#684 = PERSON_AND_ORGANIZATION_ROLE ( 'design_owner' ) ;
#685 = ORIENTED_EDGE ( 'NONE', *, *, #790, .T. ) ;
#686 = LINE ( 'NONE', #761, #102 ) ;
#687 = ADVANCED_FACE ( 'NONE', ( #499 ), #61, .F. ) ;
#688 = ORIENTED_EDGE ( 'NONE', *, *, #600, .F. ) ;
#689 = LINE ( 'NONE', #350, #995 ) ;
#690 = LINE ( 'NONE', #1050, #481 ) ;
#691 = EDGE_LOOP ( 'NONE', ( #1023, #903, #272, #424 ) ) ;
#692 = DIRECTION ( 'NONE',  ( 1.040834085586083310E-14, 0.000000000000000000, 1.000000000000000000 ) ) ;
#693 = ORIENTED_EDGE ( 'NONE', *, *, #735, .F. ) ;
#694 = AXIS2_PLACEMENT_3D ( 'NONE', #245, #662, #589 ) ;
#695 = EDGE_CURVE ( 'NONE', #468, #824, #171, .T. ) ;
#696 = VECTOR ( 'NONE', #851, 1000.000000000000000 ) ;
#697 = PLANE ( 'NONE',  #842 ) ;
#698 = CARTESIAN_POINT ( 'NONE',  ( 15.10000000000000142, -14.19999999999999929, 0.000000000000000000 ) ) ;
#699 = ORIENTED_EDGE ( 'NONE', *, *, #405, .T. ) ;
#700 = CYLINDRICAL_SURFACE ( 'NONE', #590, 1.449999999999999956 ) ;
#701 = VERTEX_POINT ( 'NONE', #820 ) ;
#702 = DIRECTION ( 'NONE',  ( 5.204170427930420297E-16, 1.000000000000000000, -0.000000000000000000 ) ) ;
#703 = EDGE_CURVE ( 'NONE', #441, #605, #591, .T. ) ;
#704 = DIRECTION ( 'NONE',  ( -1.000000000000000000, 0.000000000000000000, 0.000000000000000000 ) ) ;
#705 = ORIENTED_EDGE ( 'NONE', *, *, #534, .F. ) ;
#706 = CARTESIAN_POINT ( 'NONE',  ( 18.10000000000000142, -16.69999999999999929, 63.00000000000000000 ) ) ;
#707 = DIRECTION ( 'NONE',  ( 0.000000000000000000, 1.000000000000000000, 0.000000000000000000 ) ) ;
#708 = DIRECTION ( 'NONE',  ( -1.000000000000000000, 0.000000000000000000, 0.000000000000000000 ) ) ;
#709 = ORIENTED_EDGE ( 'NONE', *, *, #121, .T. ) ;
#710 = DIRECTION ( 'NONE',  ( 0.000000000000000000, 1.000000000000000000, -0.000000000000000000 ) ) ;
#711 = DIRECTION ( 'NONE',  ( -0.000000000000000000, -1.000000000000000000, 0.000000000000000000 ) ) ;
#712 = VECTOR ( 'NONE', #598, 1000.000000000000000 ) ;
#713 = ORIENTED_EDGE ( 'NONE', *, *, #82, .T. ) ;
#714 = VECTOR ( 'NONE', #285, 1000.000000000000114 ) ;
#715 = CARTESIAN_POINT ( 'NONE',  ( 1.950000000000001066, -15.69999999999999929, 3.499999999999999556 ) ) ;
#716 = ADVANCED_FACE ( 'NONE', ( #580 ), #164, .F. ) ;
#717 = DIRECTION ( 'NONE',  ( 0.000000000000000000, -1.000000000000000000, 0.000000000000000000 ) ) ;
#718 = ORIENTED_EDGE ( 'NONE', *, *, #98, .F. ) ;
#719 = FACE_BOUND ( 'NONE', #381, .T. ) ;
#720 = CARTESIAN_POINT ( 'NONE',  ( -0.8999999999999980238, -14.19999999999999929, 63.00000000000000000 ) ) ;
#721 = DIRECTION ( 'NONE',  ( 1.000000000000000000, 0.000000000000000000, 0.000000000000000000 ) ) ;
#722 = PLANE ( 'NONE',  #945 ) ;
#723 = DIRECTION ( 'NONE',  ( 1.221636250687892480E-16, -1.000000000000000000, 0.000000000000000000 ) ) ;
#724 = ORIENTED_EDGE ( 'NONE', *, *, #76, .T. ) ;
#725 = DIRECTION ( 'NONE',  ( -0.000000000000000000, -1.000000000000000000, -0.000000000000000000 ) ) ;
#726 = DIRECTION ( 'NONE',  ( -0.000000000000000000, -0.000000000000000000, -1.000000000000000000 ) ) ;
#727 = ADVANCED_FACE ( 'NONE', ( #972 ), #747, .F. ) ;
#728 = AXIS2_PLACEMENT_3D ( 'NONE', #657, #976, #239 ) ;
#729 = VECTOR ( 'NONE', #966, 1000.000000000000000 ) ;
#730 = AXIS2_PLACEMENT_3D ( 'NONE', #658, #230, #890 ) ;
#731 = DIRECTION ( 'NONE',  ( -1.927470528863119049E-16, 1.000000000000000000, -0.000000000000000000 ) ) ;
#732 = ORIENTED_EDGE ( 'NONE', *, *, #846, .F. ) ;
#733 = DIRECTION ( 'NONE',  ( 0.000000000000000000, 0.000000000000000000, 1.000000000000000000 ) ) ;
#734 = DIRECTION ( 'NONE',  ( -0.000000000000000000, -0.000000000000000000, -1.000000000000000000 ) ) ;
#735 = EDGE_CURVE ( 'NONE', #922, #623, #151, .T. ) ;
#736 = CARTESIAN_POINT ( 'NONE',  ( -0.8999999999999906963, 4.683753385137329851E-16, 0.000000000000000000 ) ) ;
#737 = CARTESIAN_POINT ( 'NONE',  ( 1.950000000000004174, -15.69999999999999929, 29.30000000000000071 ) ) ;
#738 = ORIENTED_EDGE ( 'NONE', *, *, #965, .T. ) ;
#739 = DIRECTION ( 'NONE',  ( -0.000000000000000000, -1.000000000000000000, -0.000000000000000000 ) ) ;
#740 = DIRECTION ( 'NONE',  ( 2.396026900520451756E-17, -1.000000000000000000, 0.000000000000000000 ) ) ;
#741 = PLANE ( 'NONE',  #428 ) ;
#742 = CARTESIAN_POINT ( 'NONE',  ( 0.7000000000000038414, -16.70100000000000406, 32.00000000000000000 ) ) ;
#743 = ORIENTED_EDGE ( 'NONE', *, *, #614, .F. ) ;
#744 = PLANE ( 'NONE',  #97 ) ;
#745 = APPROVAL_PERSON_ORGANIZATION ( #512, #642, #346 ) ;
#746 = CALENDAR_DATE ( 2025, 23, 9 ) ;
#747 = CYLINDRICAL_SURFACE ( 'NONE', #450, 1.250000000000000888 ) ;
#748 = VECTOR ( 'NONE', #784, 1000.000000000000000 ) ;
#749 = VERTEX_POINT ( 'NONE', #906 ) ;
#750 = EDGE_CURVE ( 'NONE', #961, #597, #168, .T. ) ;
#751 = DIRECTION ( 'NONE',  ( 0.000000000000000000, -1.000000000000000000, 0.000000000000000000 ) ) ;
#752 = COORDINATED_UNIVERSAL_TIME_OFFSET ( 8, 0, .AHEAD. ) ;
#753 = ORIENTED_EDGE ( 'NONE', *, *, #790, .F. ) ;
#754 = DIRECTION ( 'NONE',  ( -0.000000000000000000, -1.000000000000000000, -0.000000000000000000 ) ) ;
#755 = ADVANCED_FACE ( 'NONE', ( #9 ), #538, .F. ) ;
#756 = DATE_TIME_ROLE ( 'creation_date' ) ;
#757 = ORIENTED_EDGE ( 'NONE', *, *, #886, .F. ) ;
#758 = VECTOR ( 'NONE', #387, 1000.000000000000000 ) ;
#759 = ORGANIZATION ( '未指定', '未指定', '' ) ;
#760 = VECTOR ( 'NONE', #356, 1000.000000000000000 ) ;
#761 = CARTESIAN_POINT ( 'NONE',  ( 15.09999999999999964, 0.000000000000000000, 65.00000000000000000 ) ) ;
#762 = EDGE_LOOP ( 'NONE', ( #620, #462, #522, #222 ) ) ;
#763 = VECTOR ( 'NONE', #805, 1000.000000000000000 ) ;
#764 = AXIS2_PLACEMENT_3D ( 'NONE', #402, #739, #900 ) ;
#765 = DATE_TIME_ROLE ( 'classification_date' ) ;
#766 = EDGE_CURVE ( 'NONE', #242, #213, #576, .T. ) ;
#767 = VERTEX_POINT ( 'NONE', #544 ) ;
#768 = DIRECTION ( 'NONE',  ( 1.000000000000000000, 0.000000000000000000, 0.000000000000000000 ) ) ;
#769 = CARTESIAN_POINT ( 'NONE',  ( 1.950000000000004174, -16.70100000000000406, 32.00000000000000000 ) ) ;
#770 = ORIENTED_EDGE ( 'NONE', *, *, #328, .T. ) ;
#771 = DIRECTION ( 'NONE',  ( -1.000000000000000000, 5.204170427930420297E-16, 0.000000000000000000 ) ) ;
#772 = EDGE_CURVE ( 'NONE', #407, #464, #928, .T. ) ;
#773 = ORIENTED_EDGE ( 'NONE', *, *, #8, .T. ) ;
#774 = PLANE ( 'NONE',  #169 ) ;
#775 = CARTESIAN_POINT ( 'NONE',  ( 15.09999999999999609, 0.000000000000000000, 53.00000000000000711 ) ) ;
#776 = ORIENTED_EDGE ( 'NONE', *, *, #750, .F. ) ;
#777 = DIRECTION ( 'NONE',  ( 1.000000000000000000, -0.000000000000000000, -0.000000000000000000 ) ) ;
#778 = EDGE_CURVE ( 'NONE', #255, #660, #212, .T. ) ;
#779 = VECTOR ( 'NONE', #768, 1000.000000000000000 ) ;
#780 = CIRCLE ( 'NONE', #1053, 1.250000000000000888 ) ;
#781 = LINE ( 'NONE', #785, #504 ) ;
#782 = CARTESIAN_POINT ( 'NONE',  ( 16.10000000000000142, -11.99999999999999822, -1.714505518806294244E-15 ) ) ;
#783 = EDGE_LOOP ( 'NONE', ( #128, #593, #478, #142 ) ) ;
#784 = DIRECTION ( 'NONE',  ( -0.000000000000000000, 1.000000000000000000, -0.000000000000000000 ) ) ;
#785 = CARTESIAN_POINT ( 'NONE',  ( 16.10000000000000142, 0.000000000000000000, 0.000000000000000000 ) ) ;
#786 = CYLINDRICAL_SURFACE ( 'NONE', #1029, 1.449999999999999956 ) ;
#787 = VERTEX_POINT ( 'NONE', #271 ) ;
#788 = CYLINDRICAL_SURFACE ( 'NONE', #983, 2.000000000000001776 ) ;
#789 = CARTESIAN_POINT ( 'NONE',  ( 1.950000000000001066, -16.69999999999999929, 0.7999999999999994893 ) ) ;
#790 = EDGE_CURVE ( 'NONE', #683, #1027, #613, .T. ) ;
#791 = ORIENTED_EDGE ( 'NONE', *, *, #829, .T. ) ;
#792 = CARTESIAN_POINT ( 'NONE',  ( 13.03499999999999837, 0.000000000000000000, 59.09000000000000341 ) ) ;
#793 = DIRECTION ( 'NONE',  ( 0.000000000000000000, -0.000000000000000000, 1.000000000000000000 ) ) ;
#794 = CIRCLE ( 'NONE', #86, 2.700000000000001066 ) ;
#795 = ORIENTED_EDGE ( 'NONE', *, *, #652, .F. ) ;
#796 = EDGE_CURVE ( 'NONE', #55, #1027, #123, .T. ) ;
#797 = DIRECTION ( 'NONE',  ( 0.000000000000000000, 0.000000000000000000, -1.000000000000000000 ) ) ;
#798 = ORIENTED_EDGE ( 'NONE', *, *, #553, .F. ) ;
#799 = CARTESIAN_POINT ( 'NONE',  ( 13.03499999999999837, 2.000000000000001776, 57.64000000000000057 ) ) ;
#800 = EDGE_LOOP ( 'NONE', ( #175, #935 ) ) ;
#801 = CARTESIAN_POINT ( 'NONE',  ( 1.950000000000000844, -15.69999999999999929, 3.499999999999999556 ) ) ;
#802 = DIRECTION ( 'NONE',  ( 0.000000000000000000, 1.000000000000000000, 0.000000000000000000 ) ) ;
#803 = EDGE_CURVE ( 'NONE', #343, #581, #571, .T. ) ;
#804 = CARTESIAN_POINT ( 'NONE',  ( 18.10000000000000142, 2.000000000000002220, 63.00000000000000000 ) ) ;
#805 = DIRECTION ( 'NONE',  ( -1.000000000000000000, 0.000000000000000000, 0.000000000000000000 ) ) ;
#806 = CARTESIAN_POINT ( 'NONE',  ( 1.950000000000004174, -15.69999999999999929, 32.00000000000000000 ) ) ;
#807 = CARTESIAN_POINT ( 'NONE',  ( 1.950000000000001510, -16.69999999999999929, 6.200000000000000178 ) ) ;
#808 = ORIENTED_EDGE ( 'NONE', *, *, #335, .T. ) ;
#809 = FACE_OUTER_BOUND ( 'NONE', #358, .T. ) ;
#810 = EDGE_CURVE ( 'NONE', #961, #432, #434, .T. ) ;
#811 = LINE ( 'NONE', #641, #225 ) ;
#812 = VECTOR ( 'NONE', #734, 1000.000000000000000 ) ;
#813 = DIRECTION ( 'NONE',  ( 0.000000000000000000, 0.000000000000000000, -1.000000000000000000 ) ) ;
#814 = CIRCLE ( 'NONE', #624, 2.700000000000000178 ) ;
#815 = DIRECTION ( 'NONE',  ( -0.000000000000000000, -1.000000000000000000, -0.000000000000000000 ) ) ;
#816 = ORIENTED_EDGE ( 'NONE', *, *, #167, .T. ) ;
#817 = CARTESIAN_POINT ( 'NONE',  ( 1.950000000000004174, -15.69999999999999929, 32.00000000000000000 ) ) ;
#818 = CARTESIAN_POINT ( 'NONE',  ( 1.950000000000001066, -16.69999999999999929, 3.499999999999999556 ) ) ;
#819 = DIRECTION ( 'NONE',  ( -0.000000000000000000, -1.000000000000000000, -0.000000000000000000 ) ) ;
#820 = CARTESIAN_POINT ( 'NONE',  ( 15.09999999999999609, 2.000000000000001776, 53.00000000000000711 ) ) ;
#821 = CARTESIAN_POINT ( 'NONE',  ( 1.950000000000004174, -15.69999999999999929, 29.30000000000000071 ) ) ;
#822 = EDGE_CURVE ( 'NONE', #559, #470, #376, .T. ) ;
#823 = DIRECTION ( 'NONE',  ( 0.000000000000000000, 0.000000000000000000, -1.000000000000000000 ) ) ;
#824 = VERTEX_POINT ( 'NONE', #804 ) ;
#825 = CC_DESIGN_APPROVAL ( #621, ( #1031 ) ) ;
#826 = APPROVAL_STATUS ( 'not_yet_approved' ) ;
#827 = CARTESIAN_POINT ( 'NONE',  ( 1.764999999999995683, 2.000000000000001776, 57.64000000000000057 ) ) ;
#828 = VECTOR ( 'NONE', #529, 1000.000000000000000 ) ;
#829 = EDGE_CURVE ( 'NONE', #213, #581, #59, .T. ) ;
#830 = CIRCLE ( 'NONE', #730, 2.700000000000000178 ) ;
#831 = EDGE_LOOP ( 'NONE', ( #438, #401, #630, #938, #226, #674 ) ) ;
#832 = ORIENTED_EDGE ( 'NONE', *, *, #659, .T. ) ;
#833 = ORIENTED_EDGE ( 'NONE', *, *, #735, .T. ) ;
#834 = EDGE_CURVE ( 'NONE', #617, #872, #690, .T. ) ;
#835 = CALENDAR_DATE ( 2025, 23, 9 ) ;
#836 = ORIENTED_EDGE ( 'NONE', *, *, #874, .T. ) ;
#837 = DIRECTION ( 'NONE',  ( -0.000000000000000000, 1.000000000000000000, -0.000000000000000000 ) ) ;
#838 = ORIENTED_EDGE ( 'NONE', *, *, #268, .T. ) ;
#839 = PRODUCT_RELATED_PRODUCT_CATEGORY ( 'detail', '', ( #416 ) ) ;
#840 = PERSON_AND_ORGANIZATION ( #270, #759 ) ;
#841 = VERTEX_POINT ( 'NONE', #281 ) ;
#842 = AXIS2_PLACEMENT_3D ( 'NONE', #210, #608, #293 ) ;
#843 = CARTESIAN_POINT ( 'NONE',  ( 18.10000000000000142, -3.999999999999998224, 50.00000000000000000 ) ) ;
#844 = VECTOR ( 'NONE', #326, 1000.000000000000000 ) ;
#845 = COORDINATED_UNIVERSAL_TIME_OFFSET ( 8, 0, .AHEAD. ) ;
#846 = EDGE_CURVE ( 'NONE', #379, #767, #649, .T. ) ;
#847 = ORIENTED_EDGE ( 'NONE', *, *, #36, .F. ) ;
#848 = CARTESIAN_POINT ( 'NONE',  ( 13.03499999999999837, -16.70100000000000051, 57.64000000000000057 ) ) ;
#849 = ORIENTED_EDGE ( 'NONE', *, *, #578, .T. ) ;
#850 = DIRECTION ( 'NONE',  ( 0.000000000000000000, -0.000000000000000000, -1.000000000000000000 ) ) ;
#851 = DIRECTION ( 'NONE',  ( -0.000000000000000000, -0.000000000000000000, -1.000000000000000000 ) ) ;
#852 = ORIENTED_EDGE ( 'NONE', *, *, #606, .T. ) ;
#853 = ADVANCED_FACE ( 'NONE', ( #969 ), #440, .F. ) ;
#854 = CARTESIAN_POINT ( 'NONE',  ( 15.10000000000000142, -14.19999999999999929, 65.00000000000000000 ) ) ;
#855 = DIRECTION ( 'NONE',  ( 1.221636250687892480E-16, -1.000000000000000000, 0.000000000000000000 ) ) ;
#856 = CARTESIAN_POINT ( 'NONE',  ( -2.901000000000000689, 2.000000000000001776, 50.00000000000000000 ) ) ;
#857 = VERTEX_POINT ( 'NONE', #775 ) ;
#858 = FACE_OUTER_BOUND ( 'NONE', #138, .T. ) ;
#859 = AXIS2_PLACEMENT_3D ( 'NONE', #306, #390, #300 ) ;
#860 = AXIS2_PLACEMENT_3D ( 'NONE', #217, #707, #793 ) ;
#861 = AXIS2_PLACEMENT_3D ( 'NONE', #295, #710, #214 ) ;
#862 = VECTOR ( 'NONE', #932, 999.9999999999998863 ) ;
#863 = DIRECTION ( 'NONE',  ( -1.927470528863119049E-16, 1.000000000000000000, -0.000000000000000000 ) ) ;
#864 = DIRECTION ( 'NONE',  ( -0.000000000000000000, 1.000000000000000000, -0.000000000000000000 ) ) ;
#865 = EDGE_LOOP ( 'NONE', ( #847, #833, #352, #124 ) ) ;
#866 = CARTESIAN_POINT ( 'NONE',  ( 0.000000000000000000, 0.000000000000000000, 53.00000000000000711 ) ) ;
#867 = ADVANCED_FACE ( 'NONE', ( #30 ), #786, .F. ) ;
#868 = CARTESIAN_POINT ( 'NONE',  ( -0.9000000000000002442, -16.69999999999999929, 65.00000000000000000 ) ) ;
#869 = CARTESIAN_POINT ( 'NONE',  ( 1.950000000000000622, -14.19999999999999929, 3.499999999999999556 ) ) ;
#870 = ORIENTED_EDGE ( 'NONE', *, *, #22, .F. ) ;
#871 = CARTESIAN_POINT ( 'NONE',  ( -0.8999999999999980238, -14.19999999999999929, 2.000000000000001776 ) ) ;
#872 = VERTEX_POINT ( 'NONE', #698 ) ;
#873 = DIRECTION ( 'NONE',  ( 0.000000000000000000, -0.1579905011066728704, -0.9874406319167053914 ) ) ;
#874 = EDGE_CURVE ( 'NONE', #1027, #294, #160, .T. ) ;
#875 = ORIENTED_EDGE ( 'NONE', *, *, #264, .T. ) ;
#876 = CARTESIAN_POINT ( 'NONE',  ( 13.03499999999999837, -16.70100000000000051, 56.19000000000000483 ) ) ;
#877 = ORIENTED_EDGE ( 'NONE', *, *, #534, .T. ) ;
#878 = FACE_OUTER_BOUND ( 'NONE', #39, .T. ) ;
#879 = ORIENTED_EDGE ( 'NONE', *, *, #216, .T. ) ;
#880 = DIRECTION ( 'NONE',  ( -0.000000000000000000, 1.000000000000000000, -0.000000000000000000 ) ) ;
#881 = ADVANCED_FACE ( 'NONE', ( #1016 ), #38, .F. ) ;
#882 = DIRECTION ( 'NONE',  ( 0.000000000000000000, 0.000000000000000000, 1.000000000000000000 ) ) ;
#883 = EDGE_LOOP ( 'NONE', ( #258, #654, #524, #955, #369, #426, #951, #539 ) ) ;
#884 = DIRECTION ( 'NONE',  ( 0.000000000000000000, -1.000000000000000000, 0.000000000000000000 ) ) ;
#885 = CARTESIAN_POINT ( 'NONE',  ( 16.09999999999999787, -16.69999999999999929, 0.000000000000000000 ) ) ;
#886 = EDGE_CURVE ( 'NONE', #500, #432, #408, .T. ) ;
#887 = ORIENTED_EDGE ( 'NONE', *, *, #465, .F. ) ;
#888 = CARTESIAN_POINT ( 'NONE',  ( 1.950000000000000844, -15.69999999999999929, 3.499999999999999556 ) ) ;
#889 = FACE_BOUND ( 'NONE', #528, .T. ) ;
#890 = DIRECTION ( 'NONE',  ( 0.000000000000000000, 0.000000000000000000, -1.000000000000000000 ) ) ;
#891 = FACE_OUTER_BOUND ( 'NONE', #179, .T. ) ;
#892 = DIRECTION ( 'NONE',  ( 0.000000000000000000, 0.000000000000000000, -1.000000000000000000 ) ) ;
#893 = CIRCLE ( 'NONE', #286, 1.449999999999999956 ) ;
#894 = AXIS2_PLACEMENT_3D ( 'NONE', #801, #139, #813 ) ;
#895 = AXIS2_PLACEMENT_3D ( 'NONE', #202, #29, #873 ) ;
#896 = AXIS2_PLACEMENT_3D ( 'NONE', #389, #717, #1038 ) ;
#897 = CARTESIAN_POINT ( 'NONE',  ( -2.901000000000000689, -3.999999999999998224, 50.00000000000000000 ) ) ;
#898 = CARTESIAN_POINT ( 'NONE',  ( 15.10000000000000142, -14.19999999999999929, 65.00000000000000000 ) ) ;
#899 = ORIENTED_EDGE ( 'NONE', *, *, #772, .F. ) ;
#900 = DIRECTION ( 'NONE',  ( 0.000000000000000000, 0.000000000000000000, 1.000000000000000000 ) ) ;
#901 = ADVANCED_FACE ( 'NONE', ( #891 ), #744, .F. ) ;
#902 = DIRECTION ( 'NONE',  ( 1.000000000000000000, 0.000000000000000000, 0.000000000000000000 ) ) ;
#903 = ORIENTED_EDGE ( 'NONE', *, *, #542, .T. ) ;
#904 = ADVANCED_FACE ( 'NONE', ( #569 ), #655, .F. ) ;
#905 = PERSON_AND_ORGANIZATION ( #270, #759 ) ;
#906 = CARTESIAN_POINT ( 'NONE',  ( 16.09999999999999787, -16.69999999999999929, 65.00000000000000000 ) ) ;
#907 = AXIS2_PLACEMENT_3D ( 'NONE', #446, #1020, #362 ) ;
#908 = VERTEX_POINT ( 'NONE', #821 ) ;
#909 = CIRCLE ( 'NONE', #118, 1.449999999999999956 ) ;
#910 = ADVANCED_FACE ( 'NONE', ( #809 ), #489, .F. ) ;
#911 = AXIS2_PLACEMENT_3D ( 'NONE', #817, #162, #79 ) ;
#912 = CARTESIAN_POINT ( 'NONE',  ( 3.200000000000004174, -14.19999999999999929, 32.00000000000000000 ) ) ;
#913 = COORDINATED_UNIVERSAL_TIME_OFFSET ( 8, 0, .AHEAD. ) ;
#914 = ORIENTED_EDGE ( 'NONE', *, *, #941, .T. ) ;
#915 = LINE ( 'NONE', #263, #712 ) ;
#916 = EDGE_CURVE ( 'NONE', #567, #55, #397, .T. ) ;
#917 = SECURITY_CLASSIFICATION_LEVEL ( 'unclassified' ) ;
#918 = ORIENTED_EDGE ( 'NONE', *, *, #268, .F. ) ;
#919 = CARTESIAN_POINT ( 'NONE',  ( 3.200000000000005063, -15.69999999999999929, 32.00000000000000000 ) ) ;
#920 = ORIENTED_EDGE ( 'NONE', *, *, #229, .F. ) ;
#921 = COORDINATED_UNIVERSAL_TIME_OFFSET ( 8, 0, .AHEAD. ) ;
#922 = VERTEX_POINT ( 'NONE', #661 ) ;
#923 = CARTESIAN_POINT ( 'NONE',  ( 15.09999999999999609, 2.000000000000001776, 0.000000000000000000 ) ) ;
#924 = VECTOR ( 'NONE', #726, 1000.000000000000000 ) ;
#925 = ORIENTED_EDGE ( 'NONE', *, *, #106, .F. ) ;
#926 = LINE ( 'NONE', #37, #760 ) ;
#927 = ADVANCED_FACE ( 'NONE', ( #243 ), #974, .F. ) ;
#928 = LINE ( 'NONE', #856, #257 ) ;
#929 = ORIENTED_EDGE ( 'NONE', *, *, #874, .F. ) ;
#930 = CARTESIAN_POINT ( 'NONE',  ( 15.09999999999999964, 2.000000000000001776, 50.00000000000000000 ) ) ;
#931 = DIRECTION ( 'NONE',  ( -1.927470528863118802E-16, 1.000000000000000000, 0.000000000000000000 ) ) ;
#932 = DIRECTION ( 'NONE',  ( -1.930069234162571998E-17, 0.1579905011066728704, 0.9874406319167053914 ) ) ;
#933 = ORIENTED_EDGE ( 'NONE', *, *, #916, .T. ) ;
#934 = PLANE ( 'NONE',  #85 ) ;
#935 = ORIENTED_EDGE ( 'NONE', *, *, #89, .F. ) ;
#936 = CARTESIAN_POINT ( 'NONE',  ( 13.03499999999999837, -16.70100000000000051, 59.09000000000000341 ) ) ;
#937 = DIRECTION ( 'NONE',  ( -1.927470528863119049E-16, 1.000000000000000000, -0.000000000000000000 ) ) ;
#938 = ORIENTED_EDGE ( 'NONE', *, *, #1059, .T. ) ;
#939 = AXIS2_PLACEMENT_3D ( 'NONE', #493, #731, #78 ) ;
#940 = LINE ( 'NONE', #876, #944 ) ;
#941 = EDGE_CURVE ( 'NONE', #581, #343, #780, .T. ) ;
#942 =( GEOMETRIC_REPRESENTATION_CONTEXT ( 3 ) GLOBAL_UNCERTAINTY_ASSIGNED_CONTEXT ( ( #413 ) ) GLOBAL_UNIT_ASSIGNED_CONTEXT ( ( #385, #1054, #971 ) ) REPRESENTATION_CONTEXT ( 'NONE', 'WORKASPACE' ) );
#943 = AXIS2_PLACEMENT_3D ( 'NONE', #720, #75, #892 ) ;
#944 = VECTOR ( 'NONE', #629, 1000.000000000000000 ) ;
#945 = AXIS2_PLACEMENT_3D ( 'NONE', #897, #223, #984 ) ;
#946 = LINE ( 'NONE', #126, #676 ) ;
#947 = CARTESIAN_POINT ( 'NONE',  ( -2.899999999999998135, -14.19999999999999929, 65.00000000000000000 ) ) ;
#948 = ORIENTED_EDGE ( 'NONE', *, *, #368, .T. ) ;
#949 = CARTESIAN_POINT ( 'NONE',  ( 13.03499999999999837, 2.000000000000001776, 57.64000000000000057 ) ) ;
#950 = EDGE_CURVE ( 'NONE', #470, #559, #340, .T. ) ;
#951 = ORIENTED_EDGE ( 'NONE', *, *, #553, .T. ) ;
#952 = DIRECTION ( 'NONE',  ( 1.000000000000000000, 0.000000000000000000, 0.000000000000000000 ) ) ;
#953 = LINE ( 'NONE', #644, #355 ) ;
#954 = DIRECTION ( 'NONE',  ( -5.204170427930420297E-16, -1.000000000000000000, 0.000000000000000000 ) ) ;
#955 = ORIENTED_EDGE ( 'NONE', *, *, #750, .T. ) ;
#956 = CARTESIAN_POINT ( 'NONE',  ( 18.10000000000000142, 2.000000000000002220, 65.00000000000000000 ) ) ;
#957 = ADVANCED_FACE ( 'NONE', ( #144 ), #722, .F. ) ;
#958 = EDGE_LOOP ( 'NONE', ( #115, #495, #435, #414 ) ) ;
#959 = DIRECTION ( 'NONE',  ( 0.000000000000000000, 1.000000000000000000, -0.000000000000000000 ) ) ;
#960 = FACE_OUTER_BOUND ( 'NONE', #762, .T. ) ;
#961 = VERTEX_POINT ( 'NONE', #646 ) ;
#962 = VECTOR ( 'NONE', #863, 1000.000000000000000 ) ;
#963 = DIRECTION ( 'NONE',  ( -5.204170427930420297E-16, -1.000000000000000000, 0.000000000000000000 ) ) ;
#964 = AXIS2_PLACEMENT_3D ( 'NONE', #669, #562, #240 ) ;
#965 = EDGE_CURVE ( 'NONE', #787, #615, #247, .T. ) ;
#966 = DIRECTION ( 'NONE',  ( -1.000000000000000000, 0.000000000000000000, -0.000000000000000000 ) ) ;
#967 = DIRECTION ( 'NONE',  ( 0.000000000000000000, 1.000000000000000000, 0.000000000000000000 ) ) ;
#968 = ORIENTED_EDGE ( 'NONE', *, *, #659, .F. ) ;
#969 = FACE_OUTER_BOUND ( 'NONE', #587, .T. ) ;
#970 = LINE ( 'NONE', #469, #16 ) ;
#971 =( NAMED_UNIT ( * ) SI_UNIT ( $, .STERADIAN. ) SOLID_ANGLE_UNIT ( ) );
#972 = FACE_OUTER_BOUND ( 'NONE', #547, .T. ) ;
#973 = EDGE_LOOP ( 'NONE', ( #838, #35 ) ) ;
#974 = CYLINDRICAL_SURFACE ( 'NONE', #911, 2.700000000000001066 ) ;
#975 = LINE ( 'NONE', #220, #1012 ) ;
#976 = DIRECTION ( 'NONE',  ( 0.000000000000000000, 0.000000000000000000, 1.000000000000000000 ) ) ;
#977 = CARTESIAN_POINT ( 'NONE',  ( -2.899999999999998135, -14.19999999999999929, 2.000000000000001776 ) ) ;
#978 = ORIENTED_EDGE ( 'NONE', *, *, #296, .T. ) ;
#979 = EDGE_CURVE ( 'NONE', #749, #468, #71, .T. ) ;
#980 = CARTESIAN_POINT ( 'NONE',  ( 0.000000000000000000, 2.000000000000001776, 65.00000000000000000 ) ) ;
#981 = FACE_OUTER_BOUND ( 'NONE', #361, .T. ) ;
#982 = CIRCLE ( 'NONE', #859, 1.449999999999999956 ) ;
#983 = AXIS2_PLACEMENT_3D ( 'NONE', #119, #125, #141 ) ;
#984 = DIRECTION ( 'NONE',  ( 1.000000000000000000, 0.000000000000000000, -0.000000000000000000 ) ) ;
#985 = VECTOR ( 'NONE', #477, 1000.000000000000000 ) ;
#986 = LINE ( 'NONE', #737, #844 ) ;
#987 = ORIENTED_EDGE ( 'NONE', *, *, #275, .F. ) ;
#988 = ADVANCED_FACE ( 'NONE', ( #409 ), #482, .F. ) ;
#989 = APPROVAL_ROLE ( '' ) ;
#990 = DIRECTION ( 'NONE',  ( -1.000000000000000000, 0.000000000000000000, 0.000000000000000000 ) ) ;
#991 = EDGE_CURVE ( 'NONE', #213, #242, #206, .T. ) ;
#992 = ORIENTED_EDGE ( 'NONE', *, *, #382, .F. ) ;
#993 = ORIENTED_EDGE ( 'NONE', *, *, #916, .F. ) ;
#994 = LOCAL_TIME ( 0, 52, 12.00000000000000000, #913 ) ;
#995 = VECTOR ( 'NONE', #702, 1000.000000000000000 ) ;
#996 = ADVANCED_FACE ( 'NONE', ( #556 ), #1045, .F. ) ;
#997 = EDGE_LOOP ( 'NONE', ( #327, #757, #279, #776 ) ) ;
#998 = VECTOR ( 'NONE', #723, 1000.000000000000000 ) ;
#999 = CARTESIAN_POINT ( 'NONE',  ( 1.950000000000001066, -15.69999999999999929, 3.499999999999999556 ) ) ;
#1000 = ORIENTED_EDGE ( 'NONE', *, *, #778, .T. ) ;
#1001 = PERSON_AND_ORGANIZATION_ROLE ( 'creator' ) ;
#1002 = ORIENTED_EDGE ( 'NONE', *, *, #275, .T. ) ;
#1003 = DIRECTION ( 'NONE',  ( 0.000000000000000000, -0.000000000000000000, -1.000000000000000000 ) ) ;
#1004 = PERSON_AND_ORGANIZATION_ROLE ( 'classification_officer' ) ;
#1005 = ORIENTED_EDGE ( 'NONE', *, *, #497, .F. ) ;
#1006 = CARTESIAN_POINT ( 'NONE',  ( -0.8999999999999906963, 4.683753385137329851E-16, 63.00000000000000000 ) ) ;
#1007 = EDGE_CURVE ( 'NONE', #841, #28, #982, .T. ) ;
#1008 = FACE_BOUND ( 'NONE', #336, .T. ) ;
#1009 = CARTESIAN_POINT ( 'NONE',  ( 15.09999999999999964, -11.99999999999999822, -1.371437279358045459E-15 ) ) ;
#1010 = ORIENTED_EDGE ( 'NONE', *, *, #703, .T. ) ;
#1011 = CARTESIAN_POINT ( 'NONE',  ( 13.03499999999999837, 2.000000000000001776, 56.19000000000000483 ) ) ;
#1012 = VECTOR ( 'NONE', #1063, 1000.000000000000000 ) ;
#1013 = EDGE_LOOP ( 'NONE', ( #1005, #101 ) ) ;
#1014 = PRODUCT_DEFINITION ( '未知', '', #1031, #494 ) ;
#1015 = CARTESIAN_POINT ( 'NONE',  ( 18.10000000000000142, -16.69999999999999929, 2.000000000000001776 ) ) ;
#1016 = FACE_OUTER_BOUND ( 'NONE', #112, .T. ) ;
#1017 = ORIENTED_EDGE ( 'NONE', *, *, #695, .T. ) ;
#1018 = DIRECTION ( 'NONE',  ( 0.000000000000000000, 0.000000000000000000, 1.000000000000000000 ) ) ;
#1019 = ORIENTED_EDGE ( 'NONE', *, *, #803, .F. ) ;
#1020 = DIRECTION ( 'NONE',  ( -1.927470528863118802E-16, 1.000000000000000000, 0.000000000000000000 ) ) ;
#1021 = DIRECTION ( 'NONE',  ( 0.000000000000000000, 0.000000000000000000, 1.000000000000000000 ) ) ;
#1022 = EDGE_CURVE ( 'NONE', #419, #58, #663, .T. ) ;
#1023 = ORIENTED_EDGE ( 'NONE', *, *, #259, .F. ) ;
#1024 = CARTESIAN_POINT ( 'NONE',  ( 16.10000000000000142, 2.000000000000002220, 65.00000000000000000 ) ) ;
#1025 = PLANE ( 'NONE',  #895 ) ;
#1026 = DIRECTION ( 'NONE',  ( 1.000000000000000000, -0.000000000000000000, -0.000000000000000000 ) ) ;
#1027 = VERTEX_POINT ( 'NONE', #316 ) ;
#1028 = APPROVAL ( #418, '未指定' ) ;
#1029 = AXIS2_PLACEMENT_3D ( 'NONE', #619, #367, #357 ) ;
#1030 = FACE_OUTER_BOUND ( 'NONE', #282, .T. ) ;
#1031 = PRODUCT_DEFINITION_FORMATION_WITH_SPECIFIED_SOURCE ( '任何', '', #416, .NOT_KNOWN. ) ;
#1032 = AXIS2_PLACEMENT_3D ( 'NONE', #999, #95, #91 ) ;
#1033 = AXIS2_PLACEMENT_3D ( 'NONE', #1055, #406, #823 ) ;
#1034 = CARTESIAN_POINT ( 'NONE',  ( -0.8999999999999998002, -14.19999999999999929, 0.000000000000000000 ) ) ;
#1035 = ORIENTED_EDGE ( 'NONE', *, *, #803, .T. ) ;
#1036 = LINE ( 'NONE', #301, #1051 ) ;
#1037 = ORIENTED_EDGE ( 'NONE', *, *, #527, .F. ) ;
#1038 = DIRECTION ( 'NONE',  ( 0.000000000000000000, 0.000000000000000000, -1.000000000000000000 ) ) ;
#1039 = VERTEX_POINT ( 'NONE', #476 ) ;
#1040 = CARTESIAN_POINT ( 'NONE',  ( 16.10000000000000142, 2.000000000000002220, 65.00000000000000000 ) ) ;
#1041 = CARTESIAN_POINT ( 'NONE',  ( 13.03499999999999837, 2.000000000000001776, 59.09000000000000341 ) ) ;
#1042 = ADVANCED_FACE ( 'NONE', ( #163, #404 ), #741, .T. ) ;
#1043 = DIRECTION ( 'NONE',  ( 1.000000000000000000, 2.396026900520451756E-17, 0.000000000000000000 ) ) ;
#1044 = CARTESIAN_POINT ( 'NONE',  ( -4.792053801040907825E-17, 0.000000000000000000, 53.00000000000000711 ) ) ;
#1045 = CYLINDRICAL_SURFACE ( 'NONE', #256, 1.449999999999999956 ) ;
#1046 = APPLICATION_CONTEXT ( 'configuration controlled 3d designs of mechanical parts and assemblies' ) ;
#1047 = FACE_BOUND ( 'NONE', #18, .T. ) ;
#1048 = ORIENTED_EDGE ( 'NONE', *, *, #991, .T. ) ;
#1049 = VECTOR ( 'NONE', #190, 1000.000000000000000 ) ;
#1050 = CARTESIAN_POINT ( 'NONE',  ( 15.10000000000000142, -14.19999999999999929, 65.00000000000000000 ) ) ;
#1051 = VECTOR ( 'NONE', #533, 1000.000000000000000 ) ;
#1052 = CARTESIAN_POINT ( 'NONE',  ( -4.792053801040907825E-17, -16.70100000000000051, 53.00000000000000711 ) ) ;
#1053 = AXIS2_PLACEMENT_3D ( 'NONE', #496, #74, #577 ) ;
#1054 =( NAMED_UNIT ( * ) PLANE_ANGLE_UNIT ( ) SI_UNIT ( $, .RADIAN. ) );
#1055 = CARTESIAN_POINT ( 'NONE',  ( 1.950000000000003952, -15.69999999999999929, 32.00000000000000000 ) ) ;
#1056 = ORIENTED_EDGE ( 'NONE', *, *, #184, .T. ) ;
#1057 = DIRECTION ( 'NONE',  ( 5.204170427930420297E-16, 1.000000000000000000, 0.000000000000000000 ) ) ;
#1058 = CARTESIAN_POINT ( 'NONE',  ( 1.950000000000003952, -15.69999999999999929, 32.00000000000000000 ) ) ;
#1059 = EDGE_CURVE ( 'NONE', #83, #21, #651, .T. ) ;
#1060 = CARTESIAN_POINT ( 'NONE',  ( 16.10000000000000142, -16.69999999999999929, 2.000000000000001776 ) ) ;
#1061 = EDGE_LOOP ( 'NONE', ( #332, #688, #732, #713, #667, #13, #610, #877 ) ) ;
#1062 = DIRECTION ( 'NONE',  ( -0.000000000000000000, -0.000000000000000000, -1.000000000000000000 ) ) ;
#1063 = DIRECTION ( 'NONE',  ( -0.000000000000000000, -0.000000000000000000, -1.000000000000000000 ) ) ;
#1064 = DIRECTION ( 'NONE',  ( 0.000000000000000000, -1.000000000000000000, 0.000000000000000000 ) ) ;
ENDSEC;
END-ISO-10303-21;
